<svg xmlns="http://www.w3.org/2000/svg" width="256" height="256" viewBox="0 0 256 256"><path fill="#5d4677" stroke="#fff" stroke-miterlimit="10" stroke-width="1.34" d="M1 233l22.4 14.2L153.1 234V25.6l-128.9-5L1 29.5V233z"/><path fill="none" stroke="#fff" stroke-miterlimit="10" stroke-width="2.67" d="M24.2 20.6l-.8 226.6"/><path fill="#fff" stroke="#5d4677" stroke-miterlimit="10" stroke-width=".67" d="M41.4 24.4v81.2h62.1V26.3l-62.1-1.9z"/><path fill="#fff" d="M28.2 104.4v-5.9h1.2v4.5h3.7v-4.2h1.1v4.2h5v1.4zm7.6-8.5l3.4 1.2v1.5l-11-3.8v-1.7l11-3.7v1.5l-3.4 1.2zm-1.2-3.6l-3.1 1.1-2 .6 2 .6 3.1 1.1zm-.2-13.8l-4.8.2c1.3.3 2.7.8 4.2 1.3l5.3 2v1.1l-5.2 1.7a29.3 29.3 0 0 1-4.3 1.3l4.9.3 4.7.2V88l-11-.8v-1.7l5.3-1.9 3.7-1.1-3.7-1.2-5.3-1.9v-1.8l11-.7v1.4zm-6.2-5.2h11v1.4h-11zm0-2.5v-1.4H38v-4.7h1.2v6.1zm11-8.8h-4.7l-6.3 3.5v-1.6l3-1.6 2.3-1.1-2.3-1.1-3-1.6v-1.6l6.3 3.7h4.7zm-1.7-9.6a5.3 5.3 0 0 0 .7-2.6c0-1.4-.8-2.3-1.9-2.3s-1.6.6-2.2 2.1-1.5 2.9-3.1 2.9-3-1.4-3-3.6a4.6 4.6 0 0 1 .6-2.4l1.1.4a4.6 4.6 0 0 0-.5 2.1c0 1.5.9 2.1 1.7 2.1s1.5-.7 2.1-2.2 1.6-2.8 3.2-2.8 3.2 1.2 3.2 3.8a5.5 5.5 0 0 1-.7 2.8zm-9.3-9.7h11v1.4h-11zM38.4 41l-8.9-6.1h-.1v5.5h-1.2V33h.9l8.9 6.1v-6.2h1.2V41zm-4.3-15.5v4.3H38V25h1.2v6.2h-11v-5.9h1.2v4.5h3.5v-4.3zm-2.2 196.7l-1.9.2v1.2h.4l1.1.2a1.3 1.3 0 0 1 .7 1.2 1.5 1.5 0 0 1-1.6 1.7 1.4 1.4 0 0 1-1.2-.2v-.5a1.5 1.5 0 0 0 1 .2 1 1 0 0 0 1.1-1.1c-.1-.6-.5-1-1.5-.9h-.6v-2.3l2.3-.2zm4.1 1.6c.1 1.6-.4 2.5-1.4 2.6s-1.7-.8-1.8-2.4.5-2.5 1.5-2.5 1.6.8 1.7 2.3zm-2.5.2c0 1.2.5 1.9 1.1 1.9s.9-.8.8-2.1-.4-1.9-1.1-1.8-.9.7-.8 2zm6.3-.5c.1 1.6-.4 2.6-1.5 2.6s-1.6-.7-1.7-2.3.5-2.5 1.5-2.6 1.6.8 1.7 2.3zm-2.6.3c.1 1.2.5 1.9 1.1 1.8s.9-.8.8-2-.4-1.9-1-1.9-1 .8-.9 2.1zm6.4-1.6v3c.1.8 0 1.3-.4 1.6a1.5 1.5 0 0 1-1.2.5 1.6 1.6 0 0 1-1.2-.2v-.5a1.2 1.2 0 0 0 1.1.2c.6 0 1.1-.4 1-1.3v-.4a1.2 1.2 0 0 1-1.1.7 1.5 1.5 0 0 1-1.6-1.6c-.1-1.2.6-2 1.4-2a1.1 1.1 0 0 1 1.2.5v-.5zm-.6 1.4a.4.4 0 0 0-.1-.3.8.8 0 0 0-.9-.6c-.6 0-1 .6-1 1.4a1.2 1.2 0 0 0 1.2 1.2.9.9 0 0 0 .8-.7v-1z"/><rect width="13.2" height="7.21" x="30.8" y="232.4" fill="#fff" rx="3.6" ry="3.6" transform="rotate(-4.3 36.582 233.44)"/><rect width="13.2" height="7.21" x="46.9" y="231.2" fill="#fff" rx="3.6" ry="3.6" transform="rotate(-4.3 52.614 232.707)"/><rect width="13.2" height="7.21" x="62.3" y="230.1" fill="#fff" rx="3.6" ry="3.6" transform="rotate(-4.3 68.696 230.644)"/><path fill="#fff" stroke="#5d4677" stroke-miterlimit="10" stroke-width=".67" d="M141.8 148.6a3.2 3.2 0 0 1 3.1 3.5c-2 32.2-11.3 44.2-30.3 52.3-14.2 6.1-35.2 4.7-49.6-2.4-25.5-12.7-26.6-43.1-26.2-53.1a3.2 3.2 0 0 1 3.3-3.2z"/><ellipse cx="91.8" cy="150.4" fill="#fff" stroke="#5d4677" stroke-miterlimit="10" stroke-width=".67" rx="53.3" ry="33.1"/><ellipse cx="91.8" cy="155.7" fill="#5d4677" stroke="#fff" stroke-miterlimit="10" stroke-width="1.34" rx="48.7" ry="26.6"/><ellipse cx="73" cy="136.5" fill="#fff" stroke="#5d4677" stroke-miterlimit="10" stroke-width=".67" rx="4.9" ry="3.7"/><ellipse cx="75" cy="149.4" fill="#fff" stroke="#5d4677" stroke-miterlimit="10" stroke-width=".67" rx="4.9" ry="3.7"/><ellipse cx="72.7" cy="136.6" fill="#5d4677" rx="2.1" ry="1.6"/><ellipse cx="79.2" cy="134.4" fill="#fff" stroke="#5d4677" stroke-miterlimit="10" stroke-width=".67" rx="4.3" ry="3.2"/><ellipse cx="78.9" cy="134.4" fill="#5d4677" rx="2.1" ry="1.6"/><ellipse cx="95" cy="133.8" fill="#fff" stroke="#5d4677" stroke-miterlimit="10" stroke-width=".67" rx="4.9" ry="3.7"/><ellipse cx="94.7" cy="133.8" fill="#5d4677" rx="2.1" ry="1.6"/><ellipse cx="75" cy="149.4" fill="#5d4677" rx="2.1" ry="1.6"/><ellipse cx="62.8" cy="163.3" fill="#fff" stroke="#5d4677" stroke-miterlimit="10" stroke-width=".67" rx="4.9" ry="3.7"/><ellipse cx="62.5" cy="163.3" fill="#5d4677" rx="2.1" ry="1.6"/><ellipse cx="121.9" cy="169.8" fill="#fff" stroke="#5d4677" stroke-miterlimit="10" stroke-width=".67" rx="4.9" ry="3.7"/><ellipse cx="121.6" cy="169.8" fill="#5d4677" rx="2.1" ry="1.6"/><ellipse cx="108.8" cy="135.9" fill="#fff" stroke="#5d4677" stroke-miterlimit="10" stroke-width=".67" rx="4.9" ry="3.7"/><ellipse cx="108.5" cy="136" fill="#5d4677" rx="2.1" ry="1.6"/><path fill="#fff" d="M47 154.5l-.3.7a1.9 1.9 0 0 0 1.1 2.6l1.8.5a2.8 2.8 0 0 0 3-.9 1.6 1.6 0 0 0-.7-2.5l-3.2-1.1a1.4 1.4 0 0 0-1.7.7zm4.7-8.8l-.5-.2a1.4 1.4 0 0 0-2 1l-.4 1.4a2.2 2.2 0 0 0 .8 2.4 1.3 1.3 0 0 0 2-.6l.8-2.6a1.2 1.2 0 0 0-.7-1.4zm76.3 13.7l-.6-.2a1.4 1.4 0 0 0-2 1l-.4 1.5a2.2 2.2 0 0 0 .8 2.3 1.3 1.3 0 0 0 2.1-.6l.7-2.6a1.2 1.2 0 0 0-.6-1.4zm-65-15.1l.9-.4c1.4-.7 2-2.1 1.3-2.9l-1.1-1.5a3.6 3.6 0 0 0-3.6-.7c-1.4.5-2.3 1.9-1.6 2.8l1.9 2.5a1.6 1.6 0 0 0 2.2.2zm19.3 14l.9-.4c1.4-.7 2-2.1 1.3-3l-1.1-1.4a3.5 3.5 0 0 0-3.5-.7c-1.5.5-2.4 1.9-1.7 2.8l1.9 2.5c.4.6 1.4.6 2.2.2z"/><ellipse cx="59.9" cy="153" fill="#fff" stroke="#5d4677" stroke-miterlimit="10" stroke-width=".67" rx="3.4" ry="2.6" transform="rotate(-13.2 60.22 153.234)"/><ellipse cx="59.7" cy="153" fill="#5d4677" rx="1.4" ry="1.1" transform="rotate(-13.2 59.738 153.616)"/><ellipse cx="55.3" cy="166.5" fill="#fff" stroke="#5d4677" stroke-miterlimit="10" stroke-width=".67" rx="3.4" ry="2.6" transform="rotate(-13.2 55.595 166.712)"/><ellipse cx="55.1" cy="166.5" fill="#5d4677" rx="1.4" ry="1.1" transform="rotate(-13.2 55.113 167.094)"/><ellipse cx="58.1" cy="148.8" fill="#fff" stroke="#5d4677" stroke-miterlimit="10" stroke-width=".67" rx="4.7" ry="3.6"/><ellipse cx="57.9" cy="148.8" fill="#5d4677" rx="2" ry="1.5"/><ellipse cx="130.8" cy="149.1" fill="#fff" stroke="#5d4677" stroke-miterlimit="10" stroke-width=".67" rx="3.2" ry="4.3" transform="rotate(-82.5 130.837 149.035)"/><ellipse cx="130.5" cy="149" fill="#5d4677" rx="1.6" ry="2.1" transform="rotate(-82.5 130.566 148.999)"/><ellipse cx="126.8" cy="144.1" fill="#fff" stroke="#5d4677" stroke-miterlimit="10" stroke-width=".67" rx="4.9" ry="3.7" transform="rotate(-13.2 127.373 144.363)"/><ellipse cx="104.6" cy="164.9" fill="#fff" stroke="#5d4677" stroke-miterlimit="10" stroke-width=".67" rx="4.9" ry="3.7" transform="rotate(-13.2 104.795 165.398)"/><ellipse cx="126.8" cy="144.2" fill="#5d4677" rx="2.1" ry="1.6" transform="rotate(-13.2 127.323 144.795)"/><ellipse cx="104.6" cy="164.9" fill="#5d4677" rx="2.1" ry="1.6" transform="rotate(-13.2 104.795 165.398)"/><ellipse cx="89.8" cy="150.8" fill="#fff" stroke="#5d4677" stroke-miterlimit="10" stroke-width=".67" rx="3.2" ry="4.3" transform="rotate(-82.5 89.788 150.758)"/><ellipse cx="89.5" cy="150.7" fill="#5d4677" rx="1.6" ry="2.1" transform="rotate(-82.5 89.388 150.927)"/><ellipse cx="85.7" cy="145.8" fill="#fff" stroke="#5d4677" stroke-miterlimit="10" stroke-width=".67" rx="4.9" ry="3.7" transform="rotate(-13.2 86.002 146.145)"/><ellipse cx="85.7" cy="145.9" fill="#5d4677" rx="2.1" ry="1.6" transform="rotate(-13.2 86.002 146.145)"/><path fill="#fff" d="M116.2 138.5l-.4.4a1.6 1.6 0 0 0 .3 2.3l1.3.8a2.3 2.3 0 0 0 2.5 0 1.3 1.3 0 0 0 0-2.2l-2.2-1.5a1.2 1.2 0 0 0-1.5.2zm4.5 13.2l.4.4a1.3 1.3 0 0 0 2.1 0l.7-1a2.2 2.2 0 0 0-.3-2.4c-.6-.7-1.6-.9-2.1-.2l-1.2 1.8a1.2 1.2 0 0 0 .4 1.4zm-24.2 4.1H96a1.6 1.6 0 0 0-1.8 1.5v1.5a2.3 2.3 0 0 0 1.3 2.1 1.3 1.3 0 0 0 1.9-1.1V157a1.2 1.2 0 0 0-.9-1.2zm-8.8 10.8v.6c-.2 1 .3 1.8 1.1 1.8H90a2.2 2.2 0 0 0 1.8-1.5c.3-.9-.1-1.9-.9-1.9h-2.2a1.1 1.1 0 0 0-1 1zm46-12.2l-1 .2c-1.5.2-2.5 1.4-2.1 2.4l.7 1.7c.4 1 1.7 1.6 3.2 1.7 1.5 0 2.8-1.1 2.4-2.2l-1.1-3a1.9 1.9 0 0 0-2.1-.8z"/><ellipse cx="83.4" cy="177" fill="#fff" stroke="#5d4677" stroke-miterlimit="10" stroke-width=".67" rx="4.1" ry="2.9"/><ellipse cx="83.1" cy="176.9" fill="#5d4677" rx="1.8" ry="1.2"/><ellipse cx="114.6" cy="174.7" fill="#fff" stroke="#5d4677" stroke-miterlimit="10" stroke-width=".67" rx="4.1" ry="2.9"/><ellipse cx="114.4" cy="174.7" fill="#5d4677" rx="1.8" ry="1.2"/><ellipse cx="96.6" cy="174.7" fill="#fff" stroke="#5d4677" stroke-miterlimit="10" stroke-width=".67" rx="2.9" ry="2.1" transform="rotate(-10.5 95.956 173.988)"/><ellipse cx="96.6" cy="174.7" fill="#5d4677" rx="1.3" ry=".9" transform="rotate(-10.5 95.956 173.988)"/><ellipse cx="77.8" cy="163.8" fill="#fff" stroke="#5d4677" stroke-miterlimit="10" stroke-width=".67" rx="2.9" ry="2.1" transform="rotate(-10.5 77.167 163.482)"/><ellipse cx="77.7" cy="163.8" fill="#5d4677" rx="1.3" ry=".9" transform="rotate(-10.5 77.167 163.482)"/><ellipse cx="88.4" cy="160.9" fill="#fff" stroke="#5d4677" stroke-miterlimit="10" stroke-width=".67" rx="2.9" ry="2.1" transform="rotate(-10.5 87.855 160.623)"/><ellipse cx="88.4" cy="161" fill="#5d4677" rx="1.3" ry=".9" transform="rotate(-10.5 87.855 160.623)"/><ellipse cx="53" cy="162.5" fill="#fff" stroke="#5d4677" stroke-miterlimit="10" stroke-width=".67" rx="2.9" ry="2.1" transform="rotate(-10.5 52.63 161.776)"/><ellipse cx="52.9" cy="162.5" fill="#5d4677" rx="1.3" ry=".9" transform="rotate(-10.5 52.63 161.776)"/><path fill="#fff" d="M104.5 176.4l-.2-.5a1.5 1.5 0 0 0-2.2-.8l-1.4.7a2.1 2.1 0 0 0-1.2 2.1 1.3 1.3 0 0 0 1.9 1l2.6-1.2a1 1 0 0 0 .5-1.3zm-41.8-4l-.2.5a1.4 1.4 0 0 0 .9 2l1.6.5a2.9 2.9 0 0 0 2.5-.7 1.2 1.2 0 0 0-.7-2l-2.6-.9a1.4 1.4 0 0 0-1.5.6zm46.1 3.6l-.5-.2a1.3 1.3 0 0 0-1.7.8l-.3 1.2a1.6 1.6 0 0 0 .7 1.8 1.1 1.1 0 0 0 1.7-.5l.6-2a.9.9 0 0 0-.5-1.1zm-35.4-20.4l-.4-.2a1.3 1.3 0 0 0-1.7.8l-.4 1.1a1.8 1.8 0 0 0 .7 1.9 1.1 1.1 0 0 0 1.7-.5l.7-2.1a.8.8 0 0 0-.6-1zm40.2 10.3l-.4-.2a1.2 1.2 0 0 0-1.7.8l-.4 1.1a1.8 1.8 0 0 0 .7 1.9 1.2 1.2 0 0 0 1.7-.5l.6-2.1a.7.7 0 0 0-.5-1zm-40.5 3.8l-.2-.5a1.5 1.5 0 0 0-2.2-.8l-1.4.7a2.1 2.1 0 0 0-1.2 2.1 1.4 1.4 0 0 0 2 1l2.5-1.1a1.1 1.1 0 0 0 .5-1.4zm4.3-.4H77a1.3 1.3 0 0 0-1.8.7l-.3 1.2a1.6 1.6 0 0 0 .7 1.8 1.1 1.1 0 0 0 1.7-.5l.6-2a.9.9 0 0 0-.5-1.2z"/><path fill="#5e4777" d="M76.4 175.9v-.7a1.9 1.9 0 0 0-2-1.7l-1.6.5a2.5 2.5 0 0 0-1.7 2.2c-.1 1.1.8 2.1 1.7 1.9l2.8-.7a1.4 1.4 0 0 0 .8-1.5z"/><path fill="#fff" d="M90.7 176.7l-.6.4c-.9.4-1.3 1.4-.8 2l.9 1a2.5 2.5 0 0 0 2.5.5c1-.3 1.6-1.3 1.1-1.9l-1.6-1.8a1.2 1.2 0 0 0-1.5-.2z"/><ellipse cx="116.2" cy="156.1" fill="#fff" stroke="#5d4677" stroke-miterlimit="10" stroke-width=".67" rx="2.9" ry="4.1" transform="matrix(.58 -.81 .81 .58 -78.4 159.37)"/><ellipse cx="116.3" cy="156.3" fill="#5d4677" rx="1.2" ry="1.8" transform="rotate(-54.3 116.358 156.336)"/><ellipse cx="104.1" cy="150.2" fill="#fff" stroke="#5d4677" stroke-miterlimit="10" stroke-width=".67" rx="2.1" ry="2.9" transform="rotate(-64.8 104.032 150.236)"/><ellipse cx="104.1" cy="150.2" fill="#5d4677" rx=".9" ry="1.3" transform="rotate(-64.8 104.032 150.236)"/><path fill="#fff" d="M98.7 144.2l-.2.6a1.6 1.6 0 0 0 1.3 1.9l1.6.3a2.3 2.3 0 0 0 2.2-1 1.3 1.3 0 0 0-1-2l-2.7-.5a1 1 0 0 0-1.2.7zm-3.7-2.1l.2.4a1.3 1.3 0 0 0 1.9.3l.9-.7a1.7 1.7 0 0 0 .6-1.9 1.2 1.2 0 0 0-1.7-.6l-1.7 1.3a.8.8 0 0 0-.2 1.2zm15.1 10h.7c1 .1 1.9-.5 1.8-1.3l-.2-1.3a2.7 2.7 0 0 0-1.7-1.9c-1-.3-2 .2-2 1l.2 2.3a1.5 1.5 0 0 0 1.2 1.2z"/><path fill="#5d4677" stroke="#fff" stroke-miterlimit="10" stroke-width=".78" d="M166.3 227.7l13.2 8.3 75.9-7.7V106.2l-75.5-2.9-13.6 5.2v119.2z"/><path fill="none" stroke="#fff" stroke-miterlimit="10" stroke-width="1.56" d="M179.9 103.3l-.4 132.7"/><path fill="#fff" stroke="#5d4677" stroke-miterlimit="10" stroke-width=".39" d="M242.3 111.2h-47.5v36.3h46.4l1.1-36.3z"/><path fill="#5d4677" d="M197.8 125.5h3.1v.7h-2.4v1.9h2.2v.6h-2.2v2.6h-.7zm4.4 4l-.6 1.8h-.8l2-5.8h.9l1.9 5.8h-.8l-.6-1.8zm1.9-.6l-.6-1.7-.3-1-.3 1-.6 1.7zm7.1-.1v-2.5h-.1c-.2.6-.4 1.4-.7 2.2l-1 2.7h-.6l-.9-2.7a10.4 10.4 0 0 1-.6-2.2h-.1a21.8 21.8 0 0 1-.1 2.5v2.5h-.7l.4-5.8h.9l1 2.8.6 1.9a10.1 10.1 0 0 1 .6-1.9l1-2.8h1l.3 5.8h-.7zm2.8-3.3v5.8h-.7v-5.8zm1.3 0h.7v5.1h2.5v.7h-3.2zm4.6 5.8v-2.5l-1.9-3.3h.9l.8 1.6.6 1.2a4.5 4.5 0 0 1 .6-1.2l.8-1.6h.8l-1.9 3.3v2.5zm5-.9a2.5 2.5 0 0 0 1.3.3c.8 0 1.2-.4 1.2-.9s-.3-.9-1.1-1.2-1.5-.8-1.5-1.6.7-1.6 1.9-1.6a3 3 0 0 1 1.2.3l-.2.6a2.3 2.3 0 0 0-1.1-.2c-.7 0-1 .4-1 .8s.3.8 1.1 1.1 1.5.9 1.5 1.7-.7 1.7-2.1 1.7a2.9 2.9 0 0 1-1.4-.4zm5-4.9v5.8h-.7v-5.8zm.9 5.3l3.2-4.6h-2.9v-.7h3.8v.5l-3.1 4.6h3.2v.7h-4.2zm8.1-2.2h-2.3v2h2.5v.7h-3.2v-5.8h3.1v.7h-2.4v1.8h2.3z"/><path fill="#fff" d="M184.4 221.4h-1v.7h.8a.7.7 0 0 1 .5.7 1 1 0 0 1-1 1h-.7v-.3h.6a.6.6 0 0 0 .6-.6c0-.4-.3-.6-.8-.6h-.4V221h1.3zm2.5.9q0 1.5-.9 1.5c-.5.1-.9-.4-1-1.3s.3-1.5.9-1.5.9.4 1 1.3zm-1.5.2c0 .7.3 1.1.6 1.1s.5-.5.5-1.2-.2-1.2-.6-1.1-.6.4-.5 1.2zm3.7-.3c0 .9-.3 1.5-.9 1.5s-.9-.4-1-1.4.3-1.4.9-1.5.9.5 1 1.4zm-1.5.1c0 .7.3 1.1.6 1.1s.5-.5.5-1.2-.3-1.1-.6-1.1-.6.5-.5 1.2zm3.7-.9v1.7a1.3 1.3 0 0 1-.3 1 .8.8 0 0 1-.7.3h-.7v-.4h.6c.4 0 .7-.2.6-.8v-.2a.7.7 0 0 1-.6.4 1 1 0 0 1-1-.9c0-.7.4-1.2.9-1.2a.6.6 0 0 1 .6.3h.1v-.3zm-.4.8v-.2a.5.5 0 0 0-.5-.3c-.4 0-.6.3-.6.8a.6.6 0 0 0 .7.7.7.7 0 0 0 .5-.4v-.6z"/><rect width="7.7" height="4.22" x="183.8" y="227.4" fill="#fff" rx="2.1" ry="2.1" transform="rotate(-4.3 186.198 227.053)"/><rect width="7.7" height="4.22" x="193.3" y="226.7" fill="#fff" rx="2.1" ry="2.1" transform="rotate(-4.3 195.57 226.07)"/><rect width="7.7" height="4.22" x="202.3" y="226" fill="#fff" rx="2.1" ry="2.1" transform="rotate(-4.3 203.562 226.37)"/><path fill="#fff" stroke="#5d4677" stroke-miterlimit="10" stroke-width=".39" d="M248.8 178.3a1.9 1.9 0 0 1 1.9 2c-1.2 18.9-6.7 25.9-17.8 30.7-8.4 3.5-20.7 2.7-29.1-1.5-14.9-7.4-15.5-25.2-15.3-31a1.9 1.9 0 0 1 2-1.9z"/><ellipse cx="219.5" cy="179.3" fill="#fff" stroke="#5d4677" stroke-miterlimit="10" stroke-width=".39" rx="31.2" ry="19.4"/><ellipse cx="219.5" cy="182.5" fill="#5d4677" stroke="#fff" stroke-miterlimit="10" stroke-width=".78" rx="28.5" ry="15.6"/><ellipse cx="208.5" cy="171.2" fill="#fff" stroke="#5d4677" stroke-miterlimit="10" stroke-width=".39" rx="2.9" ry="2.2"/><ellipse cx="209.7" cy="178.8" fill="#fff" stroke="#5d4677" stroke-miterlimit="10" stroke-width=".39" rx="2.9" ry="2.2"/><ellipse cx="208.4" cy="171.2" fill="#5d4677" rx="1.2" ry=".9"/><ellipse cx="212.2" cy="170" fill="#fff" stroke="#5d4677" stroke-miterlimit="10" stroke-width=".39" rx="2.5" ry="1.9"/><ellipse cx="212" cy="170" fill="#5d4677" rx="1.2" ry=".9"/><ellipse cx="221.4" cy="169.6" fill="#fff" stroke="#5d4677" stroke-miterlimit="10" stroke-width=".39" rx="2.9" ry="2.2"/><ellipse cx="221.2" cy="169.6" fill="#5d4677" rx="1.2" ry=".9"/><ellipse cx="209.7" cy="178.8" fill="#5d4677" rx="1.2" ry=".9"/><ellipse cx="202.6" cy="186.9" fill="#fff" stroke="#5d4677" stroke-miterlimit="10" stroke-width=".39" rx="2.9" ry="2.2"/><ellipse cx="202.4" cy="186.9" fill="#5d4677" rx="1.2" ry=".9"/><ellipse cx="237.2" cy="190.7" fill="#fff" stroke="#5d4677" stroke-miterlimit="10" stroke-width=".39" rx="2.9" ry="2.2"/><ellipse cx="237" cy="190.7" fill="#5d4677" rx="1.2" ry=".9"/><ellipse cx="229.5" cy="170.9" fill="#fff" stroke="#5d4677" stroke-miterlimit="10" stroke-width=".39" rx="2.9" ry="2.2"/><ellipse cx="229.3" cy="170.9" fill="#5d4677" rx="1.2" ry=".9"/><path fill="#fff" d="M193.3 181.8l-.2.4a1.1 1.1 0 0 0 .7 1.5l1 .3a1.7 1.7 0 0 0 1.8-.5.9.9 0 0 0-.5-1.5l-1.8-.6a.7.7 0 0 0-1 .4zm2.8-5.2h-.3a.8.8 0 0 0-1.2.6l-.3.8a1.5 1.5 0 0 0 .5 1.4.8.8 0 0 0 1.2-.4l.4-1.5a.6.6 0 0 0-.3-.9zm44.6 8h-.3a.9.9 0 0 0-1.2.6l-.2.8a1.2 1.2 0 0 0 .5 1.4.7.7 0 0 0 1.2-.3l.4-1.6a.7.7 0 0 0-.4-.9zm-38-8.8l.5-.3c.8-.4 1.2-1.2.8-1.7l-.7-.8a1.9 1.9 0 0 0-2.1-.4c-.8.2-1.3 1.1-1 1.6l1.2 1.5c.2.3.8.3 1.3.1zM214 184l.5-.3c.8-.4 1.2-1.2.8-1.7l-.7-.8a1.8 1.8 0 0 0-2-.4c-.9.2-1.4 1.1-1 1.6l1.1 1.5c.2.3.8.3 1.3.1z"/><ellipse cx="200.8" cy="180.8" fill="#fff" stroke="#5d4677" stroke-miterlimit="10" stroke-width=".39" rx="2" ry="1.5" transform="rotate(-13.2 201.476 181.402)"/><ellipse cx="200.7" cy="180.9" fill="#5d4677" rx=".8" ry=".6" transform="rotate(-13.2 201.476 181.402)"/><ellipse cx="198.2" cy="188.8" fill="#fff" stroke="#5d4677" stroke-miterlimit="10" stroke-width=".39" rx="2" ry="1.5" transform="rotate(-13.2 198.797 189.412)"/><ellipse cx="198.1" cy="188.8" fill="#5d4677" rx=".8" ry=".6" transform="rotate(-13.2 198.797 189.412)"/><ellipse cx="199.8" cy="178.4" fill="#fff" stroke="#5d4677" stroke-miterlimit="10" stroke-width=".39" rx="2.7" ry="2.1"/><ellipse cx="199.7" cy="178.4" fill="#5d4677" rx="1.2" ry=".9"/><ellipse cx="242.4" cy="178.6" fill="#fff" stroke="#5d4677" stroke-miterlimit="10" stroke-width=".39" rx="1.9" ry="2.5" transform="rotate(-82.5 242.398 178.586)"/><ellipse cx="242.2" cy="178.5" fill="#5d4677" rx=".9" ry="1.2" transform="rotate(-82.5 242.234 178.543)"/><ellipse cx="240" cy="175.7" fill="#fff" stroke="#5d4677" stroke-miterlimit="10" stroke-width=".39" rx="2.9" ry="2.2" transform="rotate(-13.2 240.654 175.862)"/><ellipse cx="227" cy="187.8" fill="#fff" stroke="#5d4677" stroke-miterlimit="10" stroke-width=".39" rx="2.9" ry="2.2" transform="rotate(-13.2 227.818 188.39)"/><ellipse cx="240" cy="175.7" fill="#5d4677" rx="1.2" ry=".9" transform="rotate(-13.2 240.604 176.295)"/><ellipse cx="227" cy="187.8" fill="#5d4677" rx="1.2" ry=".9" transform="rotate(-13.2 227.818 188.39)"/><ellipse cx="218.3" cy="179.6" fill="#fff" stroke="#5d4677" stroke-miterlimit="10" stroke-width=".39" rx="1.9" ry="2.5" transform="rotate(-82.5 218.334 179.572)"/><ellipse cx="218.2" cy="179.6" fill="#5d4677" rx=".9" ry="1.2" transform="rotate(-82.5 218.17 179.53)"/><ellipse cx="216" cy="176.7" fill="#fff" stroke="#5d4677" stroke-miterlimit="10" stroke-width=".39" rx="2.9" ry="2.2" transform="rotate(-13.2 216.868 177.052)"/><ellipse cx="216" cy="176.7" fill="#5d4677" rx="1.2" ry=".9" transform="rotate(-13.2 216.868 177.052)"/><path fill="#fff" d="M233.8 172.4l-.2.2a.9.9 0 0 0 .2 1.3l.7.5a1.4 1.4 0 0 0 1.5 0 .7.7 0 0 0 0-1.2l-1.3-.9a.6.6 0 0 0-.9.1zm2.6 7.7l.3.3c.4.4 1 .4 1.2 0l.4-.7a1.1 1.1 0 0 0-.1-1.3c-.4-.5-1-.6-1.2-.2l-.8 1.1a.8.8 0 0 0 .2.8zm-14.1 2.4h-.3a.8.8 0 0 0-1 .8v.9a1.3 1.3 0 0 0 .8 1.2.7.7 0 0 0 1.1-.6v-1.6a.9.9 0 0 0-.6-.7zm-5.2 6.4v.3c-.1.6.2 1.1.6 1.1h.8a1.1 1.1 0 0 0 1-.8c.2-.5 0-1.1-.5-1.1h-1.3c-.3-.2-.5.1-.6.5zm27-7.2h-.6c-.9.2-1.5.8-1.2 1.4l.4 1a1.8 1.8 0 0 0 1.8 1c.9 0 1.7-.7 1.4-1.3l-.6-1.7a1.1 1.1 0 0 0-1.2-.4z"/><ellipse cx="214.6" cy="194.9" fill="#fff" stroke="#5d4677" stroke-miterlimit="10" stroke-width=".39" rx="2.4" ry="1.7"/><ellipse cx="214.5" cy="194.9" fill="#5d4677" rx="1" ry=".7"/><ellipse cx="232.9" cy="193.6" fill="#fff" stroke="#5d4677" stroke-miterlimit="10" stroke-width=".39" rx="2.4" ry="1.7"/><ellipse cx="232.8" cy="193.6" fill="#5d4677" rx="1" ry=".7"/><ellipse cx="222.4" cy="193.6" fill="#fff" stroke="#5d4677" stroke-miterlimit="10" stroke-width=".39" rx="1.7" ry="1.2" transform="rotate(-10.5 221.498 193.206)"/><ellipse cx="222.3" cy="193.6" fill="#5d4677" rx=".7" ry=".5" transform="rotate(-10.5 221.498 193.206)"/><ellipse cx="211.3" cy="187.2" fill="#fff" stroke="#5d4677" stroke-miterlimit="10" stroke-width=".39" rx="1.7" ry="1.2" transform="rotate(-10.5 210.57 186.715)"/><ellipse cx="211.3" cy="187.2" fill="#5d4677" rx=".7" ry=".5" transform="rotate(-10.5 210.57 186.715)"/><ellipse cx="217.6" cy="185.5" fill="#fff" stroke="#5d4677" stroke-miterlimit="10" stroke-width=".39" rx="1.7" ry="1.2" transform="rotate(-10.5 216.756 185.088)"/><ellipse cx="217.5" cy="185.5" fill="#5d4677" rx=".7" ry=".5" transform="rotate(-10.5 216.756 185.088)"/><ellipse cx="196.8" cy="186.4" fill="#fff" stroke="#5d4677" stroke-miterlimit="10" stroke-width=".39" rx="1.7" ry="1.2" transform="rotate(-10.5 195.829 185.909)"/><ellipse cx="196.8" cy="186.4" fill="#5d4677" rx=".7" ry=".5" transform="rotate(-10.5 195.829 185.909)"/><path fill="#fff" d="M227 194.6v-.3a1 1 0 0 0-1.3-.5l-.8.4a1.3 1.3 0 0 0-.8 1.3.8.8 0 0 0 1.2.5l1.5-.6a.7.7 0 0 0 .2-.8zm-24.5-2.4v.3a.8.8 0 0 0 .5 1.2l.9.3a1.7 1.7 0 0 0 1.5-.4.8.8 0 0 0-.4-1.2l-1.5-.5a.9.9 0 0 0-1 .3zm27 2.2l-.3-.2a.8.8 0 0 0-1 .5l-.2.7a1.2 1.2 0 0 0 .4 1.1.7.7 0 0 0 1-.3l.4-1.2a.5.5 0 0 0-.3-.6zm-20.7-12h-.3a.7.7 0 0 0-1 .4l-.2.7a1.2 1.2 0 0 0 .4 1.1.6.6 0 0 0 1-.3l.4-1.2c.1-.3-.1-.6-.3-.7zm23.5 6h-.3c-.4-.2-.8.1-1 .5v.6a.9.9 0 0 0 .3 1.1.7.7 0 0 0 1.1-.3l.3-1.2a.4.4 0 0 0-.4-.7zm-23.7 2.3v-.4a1 1 0 0 0-1.3-.4l-.8.4a1.1 1.1 0 0 0-.7 1.2.7.7 0 0 0 1.1.6l1.5-.7a.5.5 0 0 0 .2-.7zm2.5-.3h-.3a.9.9 0 0 0-1 .5l-.2.7a1 1 0 0 0 .4 1 .6.6 0 0 0 1-.3l.4-1.1a.5.5 0 0 0-.3-.8z"/><path fill="#5e4777" d="M210.5 194.3v-.4a1 1 0 0 0-1.2-1l-.9.3a1.4 1.4 0 0 0-1 1.3c0 .6.5 1.2 1 1.1l1.6-.4a.7.7 0 0 0 .5-.9z"/><path fill="#fff" d="M218.9 194.8l-.4.2a.8.8 0 0 0-.4 1.2l.5.5a1.3 1.3 0 0 0 1.5.3c.6-.2.9-.7.6-1.1l-.9-1a.6.6 0 0 0-.9-.1z"/><ellipse cx="233.8" cy="182.7" fill="#fff" stroke="#5d4677" stroke-miterlimit="10" stroke-width=".39" rx="1.7" ry="2.4" transform="rotate(-54.3 233.846 182.724)"/><ellipse cx="233.9" cy="182.8" fill="#5d4677" rx=".7" ry="1" transform="rotate(-54.3 233.944 182.774)"/><ellipse cx="226.7" cy="179.3" fill="#fff" stroke="#5d4677" stroke-miterlimit="10" stroke-width=".39" rx="1.2" ry="1.7" transform="rotate(-64.8 226.536 179.24)"/><ellipse cx="226.8" cy="179.3" fill="#5d4677" rx=".5" ry=".7" transform="rotate(-64.8 226.536 179.24)"/><path fill="#fff" d="M223.6 175.7v.4a.9.9 0 0 0 .7 1.1h.9a1.4 1.4 0 0 0 1.4-.5.9.9 0 0 0-.6-1.2l-1.6-.3c-.4 0-.8.2-.8.5zm-2.2-1.2l.2.2a.6.6 0 0 0 1 .2l.6-.4a1.1 1.1 0 0 0 .3-1.1.7.7 0 0 0-1-.4l-1 .8c-.2.1-.2.4-.1.7zm8.9 5.8h.4c.6.1 1.1-.3 1-.7v-.8a1.3 1.3 0 0 0-1-1.1c-.6-.2-1.2.1-1.1.6v1.3a.7.7 0 0 0 .7.7z"/></svg>