<svg xmlns="http://www.w3.org/2000/svg" width="16" height="16" viewBox="0 0 16 16"><path fill="#b1ddea" stroke="#76a1ab" stroke-miterlimit="10" stroke-width=".13" d="M15 6.6a.5.5 0 0 1 .4.5c-.3 4.4-1.6 6.1-4.2 7.2a8.7 8.7 0 0 1-6.9-.3C.8 12.2.6 8 .7 6.6a.5.5 0 0 1 .5-.4z"/><ellipse cx="8" cy="6.8" fill="#89c3cf" stroke="#76a1ab" stroke-miterlimit="10" stroke-width=".13" rx="7.4" ry="4.6"/><ellipse cx="8" cy="7.6" fill="#fff" rx="6.7" ry="3.7"/><ellipse cx="5.4" cy="4.9" fill="#eb7d72" rx=".7" ry=".5"/><ellipse cx="5.4" cy="4.9" fill="#fff" rx=".3" ry=".2"/><ellipse cx="6.3" cy="4.6" fill="#b0c452" rx=".6" ry=".4"/><ellipse cx="6.3" cy="4.6" fill="#fff" rx=".3" ry=".2"/><ellipse cx="8.5" cy="4.5" fill="#f8d259" rx=".7" ry=".5"/><ellipse cx="8.4" cy="4.5" fill="#fff" rx=".3" ry=".2"/><ellipse cx="8.7" cy="7.3" fill="#f8d259" rx=".6" ry=".5"/><ellipse cx="8.7" cy="7.3" fill="#fff" rx=".3" ry=".2"/><ellipse cx="3.1" cy="8.6" fill="#fff" rx=".3" ry=".2"/><ellipse cx="10.7" cy="9.4" fill="#fff" rx=".3" ry=".2"/><ellipse cx="12.2" cy="5.5" fill="#fff" rx=".3" ry=".2"/><ellipse cx="10.4" cy="4.8" fill="#b0c452" rx=".7" ry=".5"/><ellipse cx="10.4" cy="4.8" fill="#fff" rx=".3" ry=".2"/><path fill="#eb7d72" d="M1.8 7.4c-.1.2 0 .3.1.4h.3c.1.1.3 0 .4-.1.1-.1.1-.3-.1-.3l-.4-.2zm3.4 1.3h-.1c0 .1 0 .2.1.2h.4a.2.2 0 0 0 0-.3h-.4z"/><path fill="#c8e8e9" d="M9.6 8h-.1a.4.4 0 0 0 .1.3h.5c0-.1 0-.2-.1-.2h-.4z"/><path fill="#5e4777" d="M2.5 6.2h-.1c-.1-.1-.2 0-.3.1v.2a.2.2 0 0 0 .1.3c.1.1.2.1.3-.1v-.3c.1-.1.1-.2 0-.2z"/><path fill="#198c9f" d="M4 6h.2c.2-.1.2-.2.2-.4l-.2-.2h-.5c-.2.1-.3.3-.2.4l.2.4z"/><ellipse cx="3.6" cy="7.2" fill="#f8d259" rx=".5" ry=".4" transform="rotate(-13.2 3.521 7.414)"/><ellipse cx="3.6" cy="7.2" fill="#fff" rx=".2" ry=".2" transform="rotate(-13.2 3.521 7.414)"/><ellipse cx="3.4" cy="6.6" fill="#b0c452" rx=".6" ry=".5"/><ellipse cx="3.3" cy="6.6" fill="#fff" rx=".3" ry=".2"/><ellipse cx="7.1" cy="8.4" fill="#f8d259" rx=".4" ry=".5" transform="rotate(-77.4 7.125 8.373)"/><ellipse cx="7.1" cy="8.4" fill="#fff" rx=".2" ry=".2" transform="rotate(-77.4 7.125 8.373)"/><ellipse cx="7.1" cy="9" fill="#b0c452" rx=".5" ry=".6" transform="rotate(-64.2 7.116 9.018)"/><ellipse cx="7.1" cy="9" fill="#fff" rx=".2" ry=".3" transform="rotate(-64.2 7.116 9.018)"/><ellipse cx="13.4" cy="6.7" fill="#eb7d72" rx=".4" ry=".6" transform="rotate(-82.5 13.44 6.642)"/><ellipse cx="13.4" cy="6.7" fill="#fff" rx=".2" ry=".3" transform="rotate(-82.5 13.44 6.642)"/><ellipse cx="8.7" cy="8.8" fill="#eb7d72" rx=".4" ry=".6" transform="rotate(-82.5 8.693 8.834)"/><ellipse cx="8.7" cy="8.8" fill="#fff" rx=".2" ry=".3" transform="rotate(-82.5 8.636 8.784)"/><ellipse cx="12.9" cy="6" fill="#c4e0ae" rx=".7" ry=".5" transform="rotate(-13.2 12.896 5.871)"/><ellipse cx="12.9" cy="6" fill="#fff" rx=".3" ry=".2" transform="rotate(-13.2 12.896 5.871)"/><ellipse cx="10.4" cy="7.1" fill="#eb7d72" rx=".4" ry=".3" transform="rotate(-16.5 10.235 7.118)"/><ellipse cx="10.4" cy="7.1" fill="#fff" rx=".2" ry=".2" transform="rotate(-16.5 10.235 7.118)"/><ellipse cx="10.9" cy="7.4" fill="#c4e0ae" rx=".5" ry=".4" transform="rotate(-37.2 10.884 7.467)"/><ellipse cx="10.9" cy="7.4" fill="#fff" rx=".2" ry=".2" transform="rotate(-37.2 10.934 7.319)"/><path fill="#5e4777" d="M11.4 5.2c-.1 0-.1.2 0 .3h.5a.2.2 0 0 0 0-.3l-.3-.2c0 .1-.1.1-.2.2zm-6.2 2h-.1c-.1.1-.1.3 0 .3h.2a.3.3 0 0 0 .4 0c.1 0 .1-.2 0-.3L5.4 7c-.1.1-.2.1-.2.2z"/><path fill="#fcdf79" d="M12 7h.1a.2.2 0 0 0 .3 0v-.1a.4.4 0 0 0-.1-.3h-.2l-.2.2a.1.1 0 0 0 .1.2z"/><path fill="#198c9f" d="M13.8 7.4h-.1c-.2.1-.3.2-.3.4V8l.4.2c.3 0 .4-.1.4-.3l-.2-.4zm-2.6 1.5a.3.3 0 0 0-.3-.3h-.2c-.1 0-.2.1-.2.3-.1.1 0 .3.2.3h.3zM6.6 6.3c.1-.2-.1-.4-.2-.3h-.2c-.1 0-.2.2-.2.3-.1.2 0 .4.2.3h.3c.1-.1.1-.2.1-.3z"/><ellipse cx="6.9" cy="10.5" fill="#c8e8e9" rx=".6" ry=".4"/><ellipse cx="6.8" cy="10.5" fill="#fff" rx=".2" ry=".2"/><ellipse cx="6.8" cy="7.2" fill="#c8e8e9" rx=".6" ry=".4"/><ellipse cx="6.8" cy="7.2" fill="#fff" rx=".2" ry=".2"/><ellipse cx="11.2" cy="10.2" fill="#b0c452" rx=".6" ry=".4"/><ellipse cx="11.2" cy="10.2" fill="#fff" rx=".2" ry=".2"/><ellipse cx="8.7" cy="10.2" fill="#c4e0ae" rx=".4" ry=".3" transform="rotate(-10.5 8.945 10.15)"/><ellipse cx="8.7" cy="10.2" fill="#fff" rx=".2" ry=".1" transform="rotate(-10.5 8.4 10.1)"/><ellipse cx="5" cy="6.3" fill="#c4e0ae" rx=".4" ry=".3" transform="rotate(-10.5 4.891 6.486)"/><ellipse cx="5" cy="6.3" fill="#fff" rx=".2" ry=".1" transform="rotate(-10.5 4.891 6.486)"/><path fill="#f58771" d="M9.8 10.4c-.1-.1-.2-.2-.3-.1h-.2c-.1 0-.2.1-.2.3 0 .1.2.1.3.1l.3-.2c.1.1.1 0 .1-.1zm-.7-4.7h-.6a.4.4 0 0 0-.1.3l.2.2.4-.3c.1 0 .1-.1.1-.2z"/><path fill="#198c9f" d="M4 9.9c-.1.1 0 .2.1.2h.6a.4.4 0 0 0-.1-.3H4z"/><path fill="#5e4777" d="M10.4 10.4h-.1c-.1-.1-.2 0-.2.1H10v.3c.1.1.2 0 .3-.1v-.3zM12 7.9h-.1c-.1 0-.2 0-.2.1v.5h.3V8zm-6.1 2.5c0-.2-.2-.3-.3-.2h-.2c-.1 0-.2.2-.2.3 0 .2.1.3.2.3h.4c.1-.2.1-.3.1-.4z"/><path fill="#fcdf79" d="M7.9 10.5h-.1c-.1.1-.2.2-.1.3v.2h.4c.1 0 .2-.2.1-.2l-.2-.3zm-.8-5.3H7a.2.2 0 0 0-.1.3h.5c.1-.1.2-.2.1-.3L7.3 5z"/><ellipse cx="12.8" cy="8.6" fill="#f8d259" rx=".3" ry=".4" transform="rotate(-74.8 12.78 8.63)"/><ellipse cx="12.8" cy="8.6" fill="#fff" rx=".1" ry=".2" transform="rotate(-74.8 12.78 8.63)"/><ellipse cx="4.7" cy="8.1" fill="#f8d259" rx=".3" ry=".4" transform="rotate(-74.8 4.717 8.062)"/><ellipse cx="4.7" cy="8.1" fill="#fff" rx=".1" ry=".2" transform="rotate(-74.8 4.782 8.112)"/><ellipse cx="9.9" cy="6.1" fill="#198c9f" rx=".3" ry=".4" transform="rotate(-74.8 9.971 6.069)"/><ellipse cx="10" cy="6.1" fill="#fff" rx=".1" ry=".2" transform="rotate(-74.8 9.971 6.069)"/><ellipse cx="12.7" cy="9.2" fill="#b0c452" rx=".5" ry=".6" transform="rotate(-61.6 12.72 9.174)"/><ellipse cx="12.7" cy="9.2" fill="#fff" rx=".2" ry=".3" transform="rotate(-61.6 12.72 9.174)"/><ellipse cx="3.8" cy="9.1" fill="#eb7d72" rx=".4" ry=".5" transform="rotate(-82.5 3.82 9.1)"/><ellipse cx="3.8" cy="9.1" fill="#fff" rx=".2" ry=".2" transform="rotate(-82.5 3.82 9.1)"/><ellipse cx="3.4" cy="8.5" fill="#c4e0ae" rx=".6" ry=".4" transform="rotate(-13.2 3.371 8.71)"/><ellipse cx="3.4" cy="8.6" fill="#fff" rx=".2" ry=".2" transform="rotate(-13.2 3.371 8.71)"/></svg>