<svg xmlns="http://www.w3.org/2000/svg" width="32" height="32" viewBox="0 0 32 32"><path fill="#b1ddea" stroke="#76a1ab" stroke-miterlimit="10" stroke-width=".26" d="M29.8 13a1 1 0 0 1 .9 1c-.6 8.9-3.2 12.2-8.4 14.5a18.4 18.4 0 0 1-13.8-.7c-7-3.5-7.4-12-7.2-14.7a.9.9 0 0 1 .9-.9z"/><ellipse cx="15.9" cy="13.5" fill="#89c3cf" stroke="#76a1ab" stroke-miterlimit="10" stroke-width=".26" rx="14.8" ry="9.2"/><ellipse cx="15.9" cy="15" fill="#fff" rx="13.5" ry="7.4"/><ellipse cx="12.6" cy="12.7" fill="#fff" rx=".6" ry=".4"/><ellipse cx="10.7" cy="9.7" fill="#eb7d72" rx="1.4" ry="1"/><ellipse cx="10.7" cy="9.7" fill="#fff" rx=".6" ry=".4"/><ellipse cx="12.5" cy="9.1" fill="#b0c452" rx="1.2" ry=".9"/><ellipse cx="12.4" cy="9.1" fill="#fff" rx=".6" ry=".4"/><ellipse cx="16.8" cy="8.9" fill="#f8d259" rx="1.4" ry="1"/><ellipse cx="16.7" cy="8.9" fill="#fff" rx=".6" ry=".4"/><ellipse cx="18" cy="15.6" fill="#fff" rx=".6" ry=".4"/><ellipse cx="6.1" cy="17" fill="#fff" rx=".6" ry=".4"/><ellipse cx="24.4" cy="10.8" fill="#fff" rx=".6" ry=".4"/><ellipse cx="20.7" cy="9.5" fill="#b0c452" rx="1.4" ry="1"/><ellipse cx="20.6" cy="9.5" fill="#fff" rx=".6" ry=".4"/><path fill="#eb7d72" d="M3.5 14.7h-.1c-.1.3.1.7.4.7l.5.2a.8.8 0 0 0 .8-.2.5.5 0 0 0-.2-.8l-.9-.2a.5.5 0 0 0-.5.3z"/><path fill="#5e4777" d="M4.8 12.2h-.1c-.2-.1-.5.1-.6.3v.4a.8.8 0 0 0 .2.7.5.5 0 0 0 .6-.2l.2-.7c0-.3-.1-.4-.3-.5z"/><path fill="#198c9f" d="M8 11.8h.2c.4-.2.6-.6.4-.8l-.3-.4a1.1 1.1 0 0 0-1-.2c-.4.1-.7.5-.5.8l.6.7z"/><path fill="#eb7d72" d="M14 13.4v-.6a4.3 4.3 0 0 0-1 .9 4.9 4.9 0 0 0-.4 1.1v.5a1.3 1.3 0 0 0 .1.6c.2.3.5.6.8.6h.6a2.4 2.4 0 0 0 .9-.6 7.3 7.3 0 0 1 .9 1.3 2.6 2.6 0 0 1-1 .7 3.2 3.2 0 0 1-1.4.3 2.8 2.8 0 0 1-1.2-.4 3.9 3.9 0 0 1-1-.8 2.8 2.8 0 0 1-.4-1.2 4.4 4.4 0 0 1 .3-1.9 4.3 4.3 0 0 1 1.7-2.1 2.2 2.2 0 0 1 1.4-.5 1.5 1.5 0 0 1 .9.2c.3.2.4.5.4 1.1a5.7 5.7 0 0 1-.1 1.2v.7h-1.6V14a1.5 1.5 0 0 0 .1-.6zm6.5 4a3.7 3.7 0 0 1-1.5.4c-.5-.8-.8-1.7-1.3-2.5v2.5h-1.5v-6l1.6-.3a4.7 4.7 0 0 1 .3.9 3 3 0 0 1 .4 1l.3.6v-.7a4.3 4.3 0 0 1 .1-.5v-1.4l1.7-.2a20.1 20.1 0 0 0-.1 2.5 2.2 2.2 0 0 0-.1.8c0 2.2.1 2.8.1 2.9z"/><ellipse cx="7.1" cy="14.2" fill="#f8d259" rx=".9" ry=".7" transform="rotate(-13.2 7.093 14.396)"/><ellipse cx="7" cy="14.2" fill="#fff" rx=".4" ry=".3" transform="rotate(-13.2 7.093 14.396)"/><ellipse cx="6.6" cy="13.1" fill="#b0c452" rx="1.3" ry="1"/><ellipse cx="6.5" cy="13.1" fill="#fff" rx=".6" ry=".4"/><ellipse cx="25.2" cy="17.1" fill="#f8d259" rx=".7" ry=".9" transform="rotate(-74.8 25.182 17.077)"/><ellipse cx="25.3" cy="17.1" fill="#fff" rx=".3" ry=".4" transform="rotate(-74.8 25.247 17.127)"/><ellipse cx="25.1" cy="18.3" fill="#b0c452" rx="1" ry="1.3" transform="rotate(-61.6 25.089 18.366)"/><ellipse cx="25.1" cy="18.4" fill="#fff" rx=".4" ry=".6" transform="rotate(-61.6 25.172 18.416)"/><ellipse cx="26.8" cy="13.1" fill="#eb7d72" rx=".9" ry="1.2" transform="rotate(-82.5 26.815 13.128)"/><ellipse cx="26.7" cy="13.1" fill="#fff" rx=".4" ry=".6" transform="rotate(-82.5 26.687 13.15)"/><ellipse cx="25.7" cy="11.8" fill="#c4e0ae" rx="1.4" ry="1" transform="rotate(-13.2 25.793 11.743)"/><ellipse cx="25.6" cy="11.8" fill="#fff" rx=".6" ry=".4" transform="rotate(-13.2 25.793 11.743)"/><ellipse cx="7.2" cy="17.9" fill="#eb7d72" rx=".9" ry="1.2" transform="rotate(-82.5 7.192 17.907)"/><ellipse cx="7.1" cy="17.9" fill="#fff" rx=".4" ry=".6" transform="rotate(-82.5 7.085 17.914)"/><ellipse cx="6.1" cy="16.5" fill="#c4e0ae" rx="1.4" ry="1" transform="rotate(-13.2 5.978 16.457)"/><ellipse cx="6.1" cy="16.6" fill="#fff" rx=".6" ry=".4" transform="rotate(-13.2 5.978 16.457)"/><path fill="#5e4777" d="M22.7 10.2h-.1a.4.4 0 0 0 .1.6l.3.3a.8.8 0 0 0 .7 0c.2-.2.3-.5 0-.6l-.6-.5z"/><path fill="#fcdf79" d="M23.9 13.9h.2a.4.4 0 0 0 .6 0v-.3a.8.8 0 0 0 0-.7c-.2-.2-.5-.2-.6 0l-.4.5a.6.6 0 0 0 .2.5z"/><path fill="#198c9f" d="M27.6 14.6h-.3c-.4 0-.7.4-.6.6l.2.5a.9.9 0 0 0 .9.5c.4 0 .7-.3.6-.6l-.3-.9s-.3-.1-.5-.1z"/><ellipse cx="13.6" cy="20.9" fill="#c8e8e9" rx="1.1" ry=".8"/><ellipse cx="13.5" cy="20.8" fill="#fff" rx=".5" ry=".3"/><ellipse cx="22.7" cy="20.1" fill="#c4e0ae" rx="1.1" ry=".8"/><ellipse cx="22.6" cy="20.1" fill="#fff" rx=".5" ry=".3"/><ellipse cx="17.3" cy="20.2" fill="#c4e0ae" rx=".8" ry=".6" transform="rotate(-10.5 17.345 20.251)"/><ellipse cx="17.3" cy="20.2" fill="#fff" rx=".3" ry=".2" transform="rotate(-10.5 17.345 20.251)"/><path fill="#f58771" d="M19.5 20.7h-.1a.4.4 0 0 0-.6-.3l-.4.2a.7.7 0 0 0-.3.6.3.3 0 0 0 .5.3l.7-.3a.4.4 0 0 0 .2-.5z"/><path fill="#198c9f" d="M7.9 19.6h-.1a.4.4 0 0 0 .3.6h.4a.6.6 0 0 0 .7-.2.3.3 0 0 0-.2-.5l-.7-.3a.5.5 0 0 0-.4.4z"/><path fill="#5e4777" d="M20.7 20.6h-.2c-.2-.1-.4 0-.4.2v.3a.4.4 0 0 0 .2.5c.1.1.4 0 .4-.1l.2-.6c-.1-.1-.1-.3-.2-.3zm-9 0v-.2c-.1-.3-.3-.6-.6-.5h-.4c-.3.1-.4.4-.5.7a.5.5 0 0 0 .5.5l.7-.2c.2 0 .3-.1.3-.3z"/><path fill="#fcdf79" d="M15.6 20.8h-.1c-.3.1-.4.4-.2.6l.2.2a.8.8 0 0 0 .7.2.4.4 0 0 0 .3-.6l-.4-.5a.4.4 0 0 0-.5.1z"/></svg>