<svg xmlns="http://www.w3.org/2000/svg" width="256" height="256" viewBox="0 0 256 256"><path fill="#b1ddea" stroke="#76a1ab" stroke-miterlimit="10" stroke-width="2.14" d="M240.6 99.9a7.4 7.4 0 0 1 7.3 7.9c-4.6 73.7-25.9 101-69.3 119.6-32.6 13.9-80.6 10.8-113.4-5.5C6.9 192.8 4.4 123.4 5.3 100.5a7.5 7.5 0 0 1 7.7-7.2z"/><ellipse cx="126.4" cy="104" fill="#89c3cf" stroke="#76a1ab" stroke-miterlimit="10" stroke-width="2.14" rx="121.9" ry="75.6"/><ellipse cx="126.4" cy="116.2" fill="#fff" rx="111.3" ry="60.8"/><ellipse cx="98.8" cy="97.2" fill="#fff" rx="4.8" ry="3.6"/><ellipse cx="83.6" cy="72.3" fill="#eb7d72" rx="11.1" ry="8.5"/><ellipse cx="82.9" cy="72.4" fill="#fff" rx="4.8" ry="3.6"/><ellipse cx="97.7" cy="67.4" fill="#b0c452" rx="9.7" ry="7.4"/><ellipse cx="97" cy="67.4" fill="#fff" rx="4.8" ry="3.6"/><ellipse cx="133.7" cy="66" fill="#f8d259" rx="11.1" ry="8.5"/><ellipse cx="133.1" cy="66.1" fill="#fff" rx="4.8" ry="3.6"/><ellipse cx="143.5" cy="121.4" fill="#fff" rx="4.8" ry="3.6"/><ellipse cx="45.6" cy="132.6" fill="#fff" rx="4.8" ry="3.6"/><ellipse cx="170.1" cy="145.6" fill="#fff" rx="4.8" ry="3.6"/><ellipse cx="184.7" cy="130.7" fill="#fff" rx="4.8" ry="3.6"/><ellipse cx="195.8" cy="81.7" fill="#fff" rx="4.8" ry="3.6"/><ellipse cx="165.4" cy="71" fill="#b0c452" rx="11.1" ry="8.5"/><ellipse cx="164.7" cy="71.1" fill="#fff" rx="4.8" ry="3.6"/><path fill="#eb7d72" d="M24 113.5l-.7 1.5a4.3 4.3 0 0 0 2.6 5.9l4.1 1.2a6.2 6.2 0 0 0 6.8-2 3.7 3.7 0 0 0-1.6-5.9l-7.3-2.4a3.2 3.2 0 0 0-3.9 1.7z"/><path fill="#5e4777" d="M34.9 93.3l-1.3-.5A3.4 3.4 0 0 0 29 95l-.9 3.4a5.2 5.2 0 0 0 1.8 5.4 3 3 0 0 0 4.7-1.5l1.7-5.9a2.5 2.5 0 0 0-1.4-3.1z"/><path fill="#198c9f" d="M60.6 90.1l2-1c3.2-1.6 4.6-4.7 3-6.7L63 79.2c-1.5-1.9-4.7-2.6-8-1.6s-5.3 4.2-3.8 6.2l4.4 5.9c.9 1.2 3.1 1.4 5 .4z"/><path fill="#eb7d72" d="M79 92.9a19.7 19.7 0 0 0-.1-2.2 13.4 13.4 0 0 0-3.9 3.7 18.2 18.2 0 0 0-1.6 5c0 .4-.1 1.2-.1 1.9a6.6 6.6 0 0 0 .6 3.1 4.2 4.2 0 0 0 3.2 2.3 4.8 4.8 0 0 0 2.4-.3 10 10 0 0 0 3.7-2.6 42.3 42.3 0 0 1 3.7 5.8 14.3 14.3 0 0 1-4.2 3.1A12.2 12.2 0 0 1 77 114a11.2 11.2 0 0 1-4.9-1.8 13.2 13.2 0 0 1-4-3.8 9.2 9.2 0 0 1-1.8-5c0-1.9 0-6.1 1.1-8.5a23.2 23.2 0 0 1 7-9.3 10.3 10.3 0 0 1 6.1-2.3 6.1 6.1 0 0 1 3.4 1c1.4 1 1.7 2.4 1.7 4.7s0 3.8-.2 5.3a18.7 18.7 0 0 1-.3 3.4 46.1 46.1 0 0 1-5.1.2h-1.3a12.3 12.3 0 0 1 .2-2c.1-1.2.1-2.2.1-3zm22.3 19.4c-2.2.4-4.1.7-6.4.9a44.5 44.5 0 0 1-5.4.4c-.2-5.6.5-15.1.5-18.3v-2.9l-1.8.4c-.4-2.2-.5-5.6-.6-7 2.3-.5 5.5-1.3 8.9-1.9a43.8 43.8 0 0 1 8-1 67.6 67.6 0 0 1 .2 6.9c-2.4.3-5.5.4-7.9.9 0 .6-.1 4.8-.1 5.5l7-1.3s.2 3.3.2 5.3a5.3 5.3 0 0 1-.1 1.4 70.7 70.7 0 0 1-7.4 1.3 20.5 20.5 0 0 0-.1 3.5l1.4-.2 1.7-.4a31.7 31.7 0 0 0 5.7-1.4 25.7 25.7 0 0 1 1.2 6.7 36.9 36.9 0 0 1-5 1.2zm26.9-2.1a28.4 28.4 0 0 1-6 4.9 18.4 18.4 0 0 1-2.1-2.8 64.2 64.2 0 0 1-4-6.5c0 2.3.1 4.9.1 7.1a60.9 60.9 0 0 1-7.4.1c-.1-.7.4-7.7.3-9.2s.2-10.5 0-12.6a4.1 4.1 0 0 0-1.6 0 45.1 45.1 0 0 1 .3-7.3h5.5a17.3 17.3 0 0 1 7.5 1.8c4.2 2.1 4.8 3.3 5.6 4.3a7.7 7.7 0 0 1 1.7 4.4 4.6 4.6 0 0 1-.7 2.7 17.2 17.2 0 0 1-4.7 5.2c.4.7 1.9 3.4 2.5 4.2s2.2 2.8 3 3.7zm-7.7-16.7a6.7 6.7 0 0 0-3.8-2.2l-.8-.2c0 2.3-.2 5.3 0 7.7 1.6-.4 6.6-3.2 4.6-5.3zm22.2 18.8c-2.2.4-4.2.7-6.5.9a42.7 42.7 0 0 1-5.4.4c-.1-5.6.5-15.1.5-18.3v-2.9l-1.7.4c-.4-2.2-.5-5.6-.6-7 2.2-.5 5.5-1.3 8.9-1.9a42.7 42.7 0 0 1 7.9-1 63.4 63.4 0 0 1 .3 6.9c-2.4.3-5.6.4-7.9.9-.1.6-.1 4.8-.1 5.5l6.9-1.3s.2 3.3.2 5.3v1.4a74.9 74.9 0 0 1-7.5 1.3c0 .8-.1 2.7 0 3.5l1.4-.2 1.7-.4a33.9 33.9 0 0 0 5.7-1.4 30.7 30.7 0 0 1 1.2 6.7 36.9 36.9 0 0 1-5 1.2zm28.3-.9a29.1 29.1 0 0 1-6.8 1.7c-.5-1.7-.9-3.4-1.4-5.2l-5.7 1.1a16.7 16.7 0 0 1-.5 1.9l-.7 2.8c-2.3-.4-5.9-.8-7.1-1.4.5-1.6 1.4-4.9 1.8-6.4l1-3.8c.3-1.5.8-4.6 1.3-6.7a37.1 37.1 0 0 0 .8-5.3c.1-1 .3-3.3.6-5.2a70.9 70.9 0 0 1 10.9-1.5c.3 1.1.5 4.1.6 4.9s.3 1.9.5 2.8.7 3.6 1.1 5.6 1 5 1.4 6.8 1.5 5.5 2.2 7.9zm-11.9-13.3c-.2 1.6-.5 3.2-.7 4.7l3.1-.5c-.7-3.6-1.2-6.3-1.5-9.4zm30.1 13.6c-1.1.3-2.4.4-3.5.6s-4.2.9-6.4 1.1l-3.3.4-3 .2c-.2-2.1 0-4.1 0-6.3 0-4.4.2-8.7.2-13.2s.4-6.3.5-9.8a52.1 52.1 0 0 1 7-.6c0 1.9-.3 3.8-.4 5.7-.5 5.4-.6 10.9-.6 16.6l3.1-.6 5-1.1a28.2 28.2 0 0 1 1.4 7zM60.4 146.9a34.4 34.4 0 0 1-6.2 2c-1.9-3.6-3.3-7.8-5.2-11.1 0 2-.1 3.2-.1 5.2v5.8a58.4 58.4 0 0 1-6.4.4v-7.8c0-1.6 0-3.6.2-6s.1-2.7.1-4-.1-2.2-.1-3.3-.1-1.8-.2-2.8v-3.2l6.5-1.2c.5 1.2 1.1 3 1.3 3.7l1.7 4.8a12.3 12.3 0 0 0 1.2 2.6v-3.2c0-.9.1-1.6.1-2.3v-6.3a60.5 60.5 0 0 1 7.2-.7c-.4 3.6-.4 7.2-.6 11.1-.1 1.2-.1 2.4-.1 3.5.1 9.7.5 12.5.6 12.8zm21.5-12a20.7 20.7 0 0 1-.7 4.9c-1 2.9-2.4 5.9-5.4 7.9a8.6 8.6 0 0 1-4.6 1.4c-1.5-.1-3.4-.3-4.4-1.4a15.3 15.3 0 0 1-1.8-1.8c-.4-.6-.9-1.2-1.3-1.9a13.7 13.7 0 0 1-1.4-5.2 28.3 28.3 0 0 1-.2-2.9 21.5 21.5 0 0 1 2.2-10.3c1.1-2.2 4.6-4.9 6.9-5.2a5.5 5.5 0 0 1 3.1.3 10 10 0 0 1 5 4.3 19.1 19.1 0 0 1 2.1 4.9 21.2 21.2 0 0 1 .5 5zm-6.7 0c0-.5-.1-1-.1-1.5a9.4 9.4 0 0 0-.8-3.3 8.9 8.9 0 0 0-.8-1.7 1.9 1.9 0 0 0-1.5-1 2.6 2.6 0 0 0-1.8 1.4 5.3 5.3 0 0 0-.8 2.2c-.6 3-.9 7.2.7 10.1.7 1 1.2 1 1.9.8s1.2-.8 1.8-1.6a10.6 10.6 0 0 0 1.4-5.4zm11.2 6.5a17.8 17.8 0 0 0 7.7 1.9c1 0 1.9-.2 2.2-1.2s-3.3-1.3-5.6-2-7-3-6.9-7.9a11.3 11.3 0 0 1 3-7.5c1.9-2.3 5.7-4.6 8.3-4.9s5-.2 6 1.9a9.1 9.1 0 0 1 .9 4.1 41.7 41.7 0 0 1-.4 6.3 26.7 26.7 0 0 1-6.6-.2 12.1 12.1 0 0 0 .2-2.3 9.9 9.9 0 0 0-.2-2.3c-.3-.9-4 2.6-4 4.4a1.9 1.9 0 0 0 .8 1.6c1.8 1.3 4.2 1.4 6.2 2.1s3.1.9 4.2 2.4a3.2 3.2 0 0 1 .9 2.3 8.8 8.8 0 0 1 0 2.3c-.8 3.8-2.5 6.2-6.5 7.2a11.1 11.1 0 0 1-3.3.4 27.6 27.6 0 0 1-4.4-.4 15.6 15.6 0 0 1-4.8-1.4 31 31 0 0 1 2.3-6.8zm18.2-12.6a47.1 47.1 0 0 1-1.1-7l2.2-.5 11.1-1.9a19.7 19.7 0 0 1 3.5-.4 53.1 53.1 0 0 1 .7 6.6l-3.3.3-1.6.4c-.2 1.6-.3 5.1-.3 6.9v10c0 .3.1 5.4.1 5.7a48.2 48.2 0 0 1-6.7.7v-9.1c0-2.3 0-4.2.1-7 0-.7.1-4.1 0-5.8-1.3.3-3.2.9-4.7 1.1zm36.1 18.7a27.3 27.3 0 0 1-6.7 1.7c-.6-1.7-1-3.4-1.5-5.2l-5.6 1.1a14.5 14.5 0 0 1-.6 1.9 28.6 28.6 0 0 1-.7 2.8c-2.3-.4-5.8-.8-7-1.4.5-1.6 1.3-4.9 1.8-6.4s.6-2.3.9-3.8.8-4.6 1.3-6.7a37.1 37.1 0 0 0 .8-5.3c.1-1 .3-3.3.6-5.2a74.9 74.9 0 0 1 10.9-1.5c.3 1.1.6 4.1.7 4.9s.3 1.9.5 2.8.7 3.6 1 5.6 1 5 1.5 6.8 1.4 5.5 2.1 7.9zm-11.9-13.3c-.2 1.6-.4 3.3-.7 4.7l3.1-.5c-.7-3.6-1.1-6.3-1.5-9.4zm30.2 13.6l-3.6.6c-2.1.4-4.2.9-6.4 1.1l-3.3.4-3 .2c-.1-2.1 0-4.1 0-6.3 0-4.4.3-8.7.3-13.2s.3-6.3.4-9.8a55.5 55.5 0 0 1 7.1-.6c-.1 1.9-.3 3.8-.5 5.7-.4 5.4-.6 10.9-.6 16.6l3.2-.6 5-1.1a42.8 42.8 0 0 1 1.4 7zm20.5-3.1a7.6 7.6 0 0 1-1.7 2.3 7.4 7.4 0 0 1-1.9 1.6 11.7 11.7 0 0 1-4.4 1.6h-1.3a10.2 10.2 0 0 1-4-.8c-3.9-1.6-5.9-5.5-7-9.3a9.9 9.9 0 0 1-.3-2.4c0-4.7 2.4-8.4 5-12a24.1 24.1 0 0 1 2.1-2.4 10.6 10.6 0 0 1 2.9-2.2 15.1 15.1 0 0 1 3.1-1.4 6.7 6.7 0 0 1 2.4-.4c1.3 0 2.7 0 3.6 1.1a7.5 7.5 0 0 1 1.2 4.1c0 1.2.1 3.9 0 5.3a44.3 44.3 0 0 1-6.5.9 27.4 27.4 0 0 0-.1-4 10.8 10.8 0 0 0-3.2 2.4 14.2 14.2 0 0 0-2.7 4.8 10.6 10.6 0 0 0-.8 3.3 5.5 5.5 0 0 0 .3 1.7 6.2 6.2 0 0 0 1 2.2 6.1 6.1 0 0 0 1.3 1.5 2.5 2.5 0 0 0 1.8.8 4.9 4.9 0 0 0 2-.5 3 3 0 0 0 1.2-3.2l-3.6.6a33.6 33.6 0 0 1-1.2-6.1l4.8-1.1 3.2-.5 2.8-.2a14 14 0 0 1 .8 3.4 15 15 0 0 1 .3 3.7 13 13 0 0 1-1.1 5.2zm4.1-22a7.1 7.1 0 0 1-.1-1.5 35.7 35.7 0 0 1 7.5-.8c0 1.3-.1 2.6-.1 4.3s-.1 6.3-.1 9.4.1 8.3.1 12.6v1.5c-2.4.4-5.5.7-7.2.8v-21.1c0-1.7 0-3.5-.1-5.2zm31.6 24.8a29.1 29.1 0 0 1-6.8 1.7c-.5-1.7-.9-3.4-1.4-5.2l-5.7 1.1a16.7 16.7 0 0 1-.5 1.9c-.3 1.1-.4 1.7-.7 2.8-2.3-.4-5.9-.8-7.1-1.4.5-1.6 1.4-4.9 1.8-6.4l1-3.8c.3-1.5.8-4.6 1.3-6.7a37.1 37.1 0 0 0 .8-5.3c.1-1 .3-3.3.6-5.2a70.9 70.9 0 0 1 10.9-1.5c.3 1.1.5 4.1.6 4.9s.3 1.9.5 2.8.7 3.6 1.1 5.6 1 5 1.4 6.8 1.5 5.5 2.2 7.9zm-11.9-13.3c-.2 1.6-.5 3.3-.7 4.7l3.1-.5c-.7-3.6-1.2-6.3-1.5-9.4z"/><ellipse cx="53.5" cy="109.9" fill="#f8d259" rx="7.7" ry="5.8" transform="rotate(-13.2 53.835 110.017)"/><ellipse cx="53" cy="110" fill="#fff" rx="3.3" ry="2.5" transform="rotate(-13.2 53.353 110.399)"/><ellipse cx="49.5" cy="100.3" fill="#b0c452" rx="10.7" ry="8.1"/><ellipse cx="48.9" cy="100.4" fill="#fff" rx="4.6" ry="3.5"/><ellipse cx="215.7" cy="100.9" fill="#eb7d72" rx="7.4" ry="9.7" transform="rotate(-82.5 215.704 100.913)"/><ellipse cx="215" cy="100.9" fill="#fff" rx="3.6" ry="4.8" transform="rotate(-82.5 215.055 100.848)"/><ellipse cx="207.1" cy="89.6" fill="#c4e0ae" rx="11.1" ry="8.5" transform="rotate(-13.2 207.704 89.72)"/><ellipse cx="206.5" cy="89.8" fill="#fff" rx="4.8" ry="3.6" transform="rotate(-13.2 207.222 90.103)"/><path fill="#5e4777" d="M182.3 76.8l-.9 1a3.3 3.3 0 0 0 .7 5.1l2.9 1.9a5.3 5.3 0 0 0 5.7 0 2.9 2.9 0 0 0 .1-4.9l-5.1-3.5a2.5 2.5 0 0 0-3.4.4z"/><path fill="#fcdf79" d="M192.4 107.1l1.1.9c1.6 1.5 3.9 1.5 4.8 0l1.5-2.5c.9-1.4.6-3.5-.6-5.3-1.4-1.8-3.8-2.1-4.8-.6l-2.7 4.3a2.6 2.6 0 0 0 .7 3.2z"/><path fill="#198c9f" d="M222.2 113.2l-2.2.4c-3.4.6-5.7 3.2-4.8 5.5l1.6 3.9c.9 2.3 3.8 3.8 7.2 3.8 3.5 0 6.4-2.5 5.5-4.9L227 115c-.6-1.4-2.6-2.2-4.8-1.8z"/><ellipse cx="107.2" cy="164.8" fill="#c8e8e9" rx="9.3" ry="6.6"/><ellipse cx="106.6" cy="164.6" fill="#fff" rx="4" ry="2.8"/><ellipse cx="178.6" cy="159.5" fill="#b0c452" rx="9.3" ry="6.6"/><ellipse cx="178.1" cy="159.6" fill="#fff" rx="4" ry="2.8"/><ellipse cx="137.8" cy="159.5" fill="#c4e0ae" rx="6.7" ry="4.8" transform="rotate(-10.5 137.378 159.137)"/><ellipse cx="137.4" cy="159.6" fill="#fff" rx="2.9" ry="2" transform="rotate(-10.5 136.834 159.087)"/><path fill="#f58771" d="M155.6 163.4l-.5-1.2a3.7 3.7 0 0 0-5-1.8l-3.2 1.6a5.2 5.2 0 0 0-2.9 4.9 3.2 3.2 0 0 0 4.5 2.3l5.7-2.7a2.5 2.5 0 0 0 1.4-3.1z"/><path fill="#198c9f" d="M60 154.3l-.5 1.2a3.2 3.2 0 0 0 2.1 4.6l3.5 1a5.7 5.7 0 0 0 5.7-1.6 2.8 2.8 0 0 0-1.4-4.6l-6.1-1.9a2.8 2.8 0 0 0-3.3 1.3z"/><path fill="#5e4777" d="M165.3 162.6l-1-.4a2.9 2.9 0 0 0-3.9 1.7l-.8 2.7a4 4 0 0 0 1.6 4.2 2.5 2.5 0 0 0 3.9-1.2l1.4-4.6a1.9 1.9 0 0 0-1.2-2.4zm-74-.3l-.2-1.6c-.2-2.6-2.4-4.4-4.5-3.8l-3.5 1a5.6 5.6 0 0 0-3.8 5.1c-.3 2.6 1.7 4.8 3.8 4.3l6.3-1.6a3 3 0 0 0 1.9-3.4z"/><path fill="#fcdf79" d="M123.9 164.2l-1.4.7c-2.1 1.1-2.9 3.3-1.7 4.7l2.1 2.2c1.2 1.4 3.5 1.8 5.7 1.1 2.3-.6 3.5-2.9 2.3-4.3l-3.5-4.1a2.9 2.9 0 0 0-3.5-.3z"/></svg>