<svg xmlns="http://www.w3.org/2000/svg" width="16" height="16" viewBox="0 0 16 16"><path fill="#b1ddea" stroke="#76a1ab" stroke-miterlimit="10" stroke-width=".13" d="M15 6.6a.5.5 0 0 1 .4.5c-.3 4.4-1.6 6.1-4.2 7.2a8.7 8.7 0 0 1-6.9-.3C.8 12.2.6 8 .7 6.6a.5.5 0 0 1 .5-.4z"/><ellipse cx="8" cy="6.8" fill="#89c3cf" stroke="#76a1ab" stroke-miterlimit="10" stroke-width=".13" rx="7.4" ry="4.6"/><ellipse cx="8" cy="7.6" fill="#fff" rx="6.7" ry="3.7"/><ellipse cx="6.4" cy="6.4" fill="#fff" rx=".3" ry=".2"/><ellipse cx="5.4" cy="4.9" fill="#eb7d72" rx=".7" ry=".5"/><ellipse cx="5.4" cy="4.9" fill="#fff" rx=".3" ry=".2"/><ellipse cx="6.3" cy="4.6" fill="#b0c452" rx=".6" ry=".4"/><ellipse cx="6.3" cy="4.6" fill="#fff" rx=".3" ry=".2"/><ellipse cx="8.5" cy="4.5" fill="#f8d259" rx=".7" ry=".5"/><ellipse cx="8.4" cy="4.5" fill="#fff" rx=".3" ry=".2"/><ellipse cx="9.1" cy="7.9" fill="#fff" rx=".3" ry=".2"/><ellipse cx="3.1" cy="8.6" fill="#fff" rx=".3" ry=".2"/><ellipse cx="10.7" cy="9.4" fill="#fff" rx=".3" ry=".2"/><ellipse cx="11.6" cy="8.5" fill="#fff" rx=".3" ry=".2"/><ellipse cx="12.2" cy="5.5" fill="#fff" rx=".3" ry=".2"/><ellipse cx="10.4" cy="4.8" fill="#b0c452" rx=".7" ry=".5"/><ellipse cx="10.4" cy="4.8" fill="#fff" rx=".3" ry=".2"/><path fill="#eb7d72" d="M1.8 7.4c-.1.2 0 .3.1.4h.3c.1.1.3 0 .4-.1.1-.1.1-.3-.1-.3l-.4-.2z"/><path fill="#5e4777" d="M2.5 6.2h-.1c-.1-.1-.2 0-.3.1v.2a.2.2 0 0 0 .1.3c.1.1.2.1.3-.1v-.3c.1-.1.1-.2 0-.2z"/><path fill="#198c9f" d="M4 6h.2c.2-.1.2-.2.2-.4l-.2-.2h-.5c-.2.1-.3.3-.2.4l.2.4z"/><path fill="#eb7d72" d="M5.2 6.2V6l-.3.3v.5h.3l.2-.2a.8.8 0 0 1 .2.4l-.2.2H5L4.7 7c-.1 0-.1-.1-.2-.2a.4.4 0 0 1-.1-.3c0-.1 0-.4.1-.5l.4-.6h.6c0 .1.1.2.1.3v.6h-.4zm1.3 1.1h-.7V6.1a.1.1 0 0 1-.1.1v-.5h1V6h-.5v.4h.5v.3h-.5V7h.5a.6.6 0 0 1 .1.4zm1.6-.1q-.1.3-.3.3c-.1 0-.1-.1-.1-.2L7.4 7v.4H7V6.1h-.1v-.5h.8L8 6c.1 0 .1.1.1.3l-.3.3.2.4zm-.4-1h-.3v.4c.1-.1.4-.3.3-.4zM9 7.3h-.7V6.1a.1.1 0 0 1-.1.1v-.5h1V6h-.5v.4h.5v.3h-.5V7h.6v.4zm1.7 0h-.4a.4.4 0 0 0-.1-.3h-.3a.1.1 0 0 0-.1.1h-.4V7a.4.4 0 0 1 .1-.3v-.4a.4.4 0 0 0 .2-.3v-.3h.7v.8c0 .2.1.3.1.4a.9.9 0 0 1 .2.4zm-.7-.8v.3h.2a.9.9 0 0 1-.1-.5zm1.8.8h-.9c-.1-.2 0-.3 0-.4V5.7h.4V7h.5zM4 9.4l-.3.2c-.2-.3-.2-.5-.4-.7v.6H3V7.9h.4c.1 0 .1.1.1.2a.4.4 0 0 1 .1.3h.1v-.6H4v1.6zm1.3-.7V9c-.1.2-.1.4-.3.5h-.8a.4.4 0 0 0-.1-.5v-.2a1.4 1.4 0 0 1 .2-.6c0-.2.3-.3.4-.4h.2l.3.2v.6zm-.4 0v-.3h-.3v.2a.6.6 0 0 0 0 .6h.2c.1-.2.1-.4.1-.5zm.7.4h.6L5.9 9c-.2 0-.5-.2-.4-.4a.7.7 0 0 1 .1-.5l.5-.3h.4v.3c0 .1 0 .3-.1.3h-.3c0-.1-.2.1-.2.2h.4l.3.2V9c0 .2-.1.3-.4.4h-.7a1 1 0 0 1 .1-.3zm1.1-.8c0-.1-.1-.3-.1-.4h1.1v.4h-.3v1.3H7V8.3zm2.2 1.2h-.4v-.2h-.4v.2h-.5a.6.6 0 0 1 .1-.4v-.6a.4.4 0 0 1 .1-.3v-.3h.7v.8a.6.6 0 0 0 .1.4c.2.1.3.2.3.4zm-.7-.8a.4.4 0 0 1-.1.3h.2a.7.7 0 0 0-.1-.5zm1.8.8H9v-1c0-.2.1-.4.1-.6s.2-.1.4-.1v.4a3.1 3.1 0 0 0-.1 1h.5a1 1 0 0 1 .1.3zm1.3-.2v.2h-.8A.9.9 0 0 1 10 9a.9.9 0 0 1 .3-.7V8h.8v.6h-.4v-.4c0 .1-.1.1-.2.2v.5h.4c.1 0 .1-.1.1-.2h-.2a.5.5 0 0 1-.1-.3h.7v.7zm.2-1.3h.4v1.4h-.4V8zm1.9 1.5H13v-.2h-.3v.2h-.4v-.6a.6.6 0 0 0 .1-.4c0-.1.1-.2.1-.3v-.3h.7v.5a.4.4 0 0 1 .1.3V9c0 .2.1.3.1.5zm-.7-.8V9h.1a.7.7 0 0 0-.1-.5z"/><ellipse cx="3.6" cy="7.2" fill="#f8d259" rx=".5" ry=".4" transform="rotate(-13.2 3.521 7.414)"/><ellipse cx="3.6" cy="7.2" fill="#fff" rx=".2" ry=".2" transform="rotate(-13.2 3.521 7.414)"/><ellipse cx="3.4" cy="6.6" fill="#b0c452" rx=".6" ry=".5"/><ellipse cx="3.3" cy="6.6" fill="#fff" rx=".3" ry=".2"/><ellipse cx="13.4" cy="6.7" fill="#eb7d72" rx=".4" ry=".6" transform="rotate(-82.5 13.44 6.642)"/><ellipse cx="13.4" cy="6.7" fill="#fff" rx=".2" ry=".3" transform="rotate(-82.5 13.44 6.642)"/><ellipse cx="12.9" cy="6" fill="#c4e0ae" rx=".7" ry=".5" transform="rotate(-13.2 12.896 5.871)"/><ellipse cx="12.9" cy="6" fill="#fff" rx=".3" ry=".2" transform="rotate(-13.2 12.896 5.871)"/><path fill="#5e4777" d="M11.4 5.2c-.1 0-.1.2 0 .3h.5a.2.2 0 0 0 0-.3l-.3-.2c0 .1-.1.1-.2.2z"/><path fill="#fcdf79" d="M12 7h.1a.2.2 0 0 0 .3 0v-.1a.4.4 0 0 0-.1-.3h-.2l-.2.2a.1.1 0 0 0 .1.2z"/><path fill="#198c9f" d="M13.8 7.4h-.1c-.2.1-.3.2-.3.4V8l.4.2c.3 0 .4-.1.4-.3l-.2-.4z"/><ellipse cx="6.9" cy="10.5" fill="#c8e8e9" rx=".6" ry=".4"/><ellipse cx="6.8" cy="10.5" fill="#fff" rx=".2" ry=".2"/><ellipse cx="11.2" cy="10.2" fill="#b0c452" rx=".6" ry=".4"/><ellipse cx="11.2" cy="10.2" fill="#fff" rx=".2" ry=".2"/><ellipse cx="8.7" cy="10.2" fill="#c4e0ae" rx=".4" ry=".3" transform="rotate(-10.5 8.945 10.15)"/><ellipse cx="8.7" cy="10.2" fill="#fff" rx=".2" ry=".1" transform="rotate(-10.5 8.4 10.1)"/><path fill="#f58771" d="M9.8 10.4c-.1-.1-.2-.2-.3-.1h-.2c-.1 0-.2.1-.2.3 0 .1.2.1.3.1l.3-.2c.1.1.1 0 .1-.1z"/><path fill="#198c9f" d="M4 9.9c-.1.1 0 .2.1.2h.6a.4.4 0 0 0-.1-.3H4z"/><path fill="#5e4777" d="M10.4 10.4h-.1c-.1-.1-.2 0-.2.1H10v.3c.1.1.2 0 .3-.1v-.3zm-4.5 0c0-.2-.2-.3-.3-.2h-.2c-.1 0-.2.2-.2.3 0 .2.1.3.2.3h.4c.1-.2.1-.3.1-.4z"/><path fill="#fcdf79" d="M7.9 10.5h-.1c-.1.1-.2.2-.1.3v.2h.4c.1 0 .2-.2.1-.2l-.2-.3z"/></svg>