<svg xmlns="http://www.w3.org/2000/svg" width="64" height="64" viewBox="0 0 64 64"><path fill="#b1ddea" stroke="#76a1ab" stroke-miterlimit="10" stroke-width=".54" d="M60.8 25.7a1.9 1.9 0 0 1 1.8 2c-1.1 18.6-6.5 25.5-17.4 30.2-8.3 3.5-20.4 2.7-28.6-1.4C1.9 49.2 1.2 31.7 1.5 25.9a1.8 1.8 0 0 1 1.9-1.8z"/><ellipse cx="32" cy="26.8" fill="#89c3cf" stroke="#76a1ab" stroke-miterlimit="10" stroke-width=".54" rx="30.7" ry="19"/><ellipse cx="32" cy="29.8" fill="#fff" rx="28.1" ry="15.3"/><ellipse cx="25" cy="25.1" fill="#fff" rx="1.2" ry=".9"/><ellipse cx="21.2" cy="18.8" fill="#eb7d72" rx="2.8" ry="2.1"/><ellipse cx="21" cy="18.8" fill="#fff" rx="1.2" ry=".9"/><ellipse cx="24.8" cy="17.5" fill="#b0c452" rx="2.5" ry="1.9"/><ellipse cx="24.6" cy="17.5" fill="#fff" rx="1.2" ry=".9"/><ellipse cx="33.8" cy="17.2" fill="#f8d259" rx="2.8" ry="2.1"/><ellipse cx="33.7" cy="17.2" fill="#fff" rx="1.2" ry=".9"/><ellipse cx="36.3" cy="31.1" fill="#fff" rx="1.2" ry=".9"/><ellipse cx="11.6" cy="34" fill="#fff" rx="1.2" ry=".9"/><ellipse cx="43" cy="37.2" fill="#fff" rx="1.2" ry=".9"/><ellipse cx="46.7" cy="33.5" fill="#fff" rx="1.2" ry=".9"/><ellipse cx="49.5" cy="21.2" fill="#fff" rx="1.2" ry=".9"/><ellipse cx="41.8" cy="18.4" fill="#b0c452" rx="2.8" ry="2.1"/><ellipse cx="41.7" cy="18.5" fill="#fff" rx="1.2" ry=".9"/><path fill="#eb7d72" d="M6.2 29.2l-.2.3a1.1 1.1 0 0 0 .7 1.5l1 .3a1.6 1.6 0 0 0 1.7-.5 1 1 0 0 0-.4-1.5l-1.8-.6a.9.9 0 0 0-1 .5z"/><path fill="#5e4777" d="M8.9 24.1l-.3-.2a.9.9 0 0 0-1.2.6l-.2.9a1.3 1.3 0 0 0 .5 1.3c.4.4 1 .2 1.2-.4l.4-1.5a.6.6 0 0 0-.4-.7z"/><path fill="#198c9f" d="M15.4 23.3l.5-.3c.8-.4 1.2-1.2.8-1.7l-.7-.8a1.9 1.9 0 0 0-2-.4c-.8.3-1.3 1.1-1 1.6l1.1 1.5a1.2 1.2 0 0 0 1.3.1z"/><path fill="#eb7d72" d="M20.1 24a1.5 1.5 0 0 0-.1-.6l-1 .9a6.5 6.5 0 0 0-.4 1.3v.5a1.3 1.3 0 0 0 .2.8 1.3 1.3 0 0 0 .8.6h.6l.9-.7a9.9 9.9 0 0 1 .9 1.5 2.9 2.9 0 0 1-1 .8 3.7 3.7 0 0 1-1.5.3 2.1 2.1 0 0 1-1.2-.5 2.8 2.8 0 0 1-1-.9 2.2 2.2 0 0 1-.4-1.3 5.2 5.2 0 0 1 .2-2.1 6.1 6.1 0 0 1 1.8-2.4 2.8 2.8 0 0 1 1.5-.6 1.6 1.6 0 0 1 .9.3 1.5 1.5 0 0 1 .4 1.2v1.3c0 .2-.1.7-.1.9H20v-.5c0-.4.1-.6.1-.8zm5.6 4.9l-1.6.2h-1.4c0-1.4.1-3.8.1-4.6v-.8h-.4a12.8 12.8 0 0 1-.2-1.7l2.3-.5 2-.3a10.7 10.7 0 0 1 0 1.8l-2 .2v1.4l1.8-.3V26l-1.9.3v.9h.8l1.4-.3a5.1 5.1 0 0 1 .3 1.7zm6.8-.6a11.3 11.3 0 0 1-1.6 1.3l-.5-.7c-.4-.6-.7-1.3-1-1.7V29a5.4 5.4 0 0 1-1.8 0c-.1-.1.1-1.9 0-2.3s.1-2.6 0-3.2h-.4a10.9 10.9 0 0 1 .1-1.8h1.4a4.1 4.1 0 0 1 1.9.4 5.1 5.1 0 0 1 1.4 1.1 1.8 1.8 0 0 1 .4 1.1 1 1 0 0 1-.2.7 3.2 3.2 0 0 1-1.1 1.3 6 6 0 0 0 .6 1.1 6.5 6.5 0 0 0 .8.9zm-2-4.2a1.3 1.3 0 0 0-.9-.5h-.3v2c.5-.2 1.7-1 1.2-1.5zm5.6 4.8l-1.6.2h-1.4c0-1.4.1-3.8.1-4.6v-.8h-.4a10.9 10.9 0 0 1-.1-1.7 18.8 18.8 0 0 1 2.2-.5l2-.3c0 .4.1 1.2.1 1.8l-2 .2c0 .2-.1 1.2-.1 1.4l1.8-.3V26l-1.8.3a2.8 2.8 0 0 0-.1.9h.8l1.5-.3a10.1 10.1 0 0 1 .3 1.7zm7.1-.3l-1.7.5-.3-1.4-1.5.3a.7.7 0 0 1-.1.5l-.2.7-1.7-.3.4-1.7a4.6 4.6 0 0 0 .3-.9 12.2 12.2 0 0 1 .3-1.7c.1-.5.1-.8.2-1.3s.1-.9.1-1.4a14.7 14.7 0 0 1 2.8-.3 4.9 4.9 0 0 1 .1 1.2c.1.2.1.5.2.7s.1.9.2 1.4a14.6 14.6 0 0 0 .4 1.7 19.4 19.4 0 0 1 .5 2zm-3-3.3c0 .4-.1.8-.1 1.2l.7-.2c-.1-.9-.2-1.6-.3-2.3zm7.6 3.4l-.9.2-1.6.2h-1.6v-1.4c0-1.1.1-2.2.1-3.3s.1-1.6.1-2.5l1.8-.2c0 .5-.1 1-.1 1.5s-.2 2.7-.2 4.2l.8-.2 1.3-.3a5.4 5.4 0 0 1 .3 1.8zm-32.5 8.9l-1.5.5c-.5-.9-.8-2-1.3-2.8a5.7 5.7 0 0 1-.1 1.3v1.5h-1.6a8 8 0 0 0 .1-1.1v-5.7l1.7-.3c.1.3.2.8.3 1a8.4 8.4 0 0 0 .4 1.2c.1.1.2.5.3.6v-2.2c0-.3 0-.6.1-.7l1.7-.2a25.3 25.3 0 0 0-.1 2.8v.9c-.1 2.4 0 3.1 0 3.2zm5.5-3a5 5 0 0 1-.2 1.2 3.4 3.4 0 0 1-1.4 2 2 2 0 0 1-1.1.3c-.4 0-.9 0-1.1-.3l-.5-.5-.3-.4a5.7 5.7 0 0 1-.4-1.4v-.7a5.8 5.8 0 0 1 .5-2.6 3.4 3.4 0 0 1 1.8-1.3 1.2 1.2 0 0 1 .8.1 2.2 2.2 0 0 1 1.2 1.1 1.8 1.8 0 0 1 .5 1.2 5.1 5.1 0 0 1 .2 1.3zm-1.7 0v-.4c-.1-.3-.1-.6-.2-.9a.8.8 0 0 1-.2-.4l-.4-.2c-.2 0-.3.1-.5.3s-.1.4-.2.6a4.3 4.3 0 0 0 .2 2.5c.2.3.3.3.5.2s.3-.2.4-.4a2 2 0 0 0 .4-1.3zm2.8 1.6a3.9 3.9 0 0 0 2 .5.5.5 0 0 0 .5-.3c.1-.2-.8-.4-1.4-.5s-1.8-.8-1.8-2A3.7 3.7 0 0 1 22 32a3.9 3.9 0 0 1 2.1-1.3c.5 0 1.3 0 1.5.5a2 2 0 0 1 .3 1.1c0 .4-.1 1.2-.1 1.6h-1.7v-1.3c-.1-.2-1 .7-1 1.2s0 .2.2.4a6.6 6.6 0 0 0 1.5.5 1.7 1.7 0 0 1 1.1.6c.2.2.2.3.2.6a.4.4 0 0 1 0 .5 2.1 2.1 0 0 1-1.6 1.9h-2l-1.2-.4a12.3 12.3 0 0 1 .6-1.7zm4.6-3.2c-.1-.7-.3-1.5-.3-1.7l.6-.2 2.8-.5h.9c0 .3.1 1.1.1 1.7h-1.2a9.7 9.7 0 0 0-.1 1.7v2.5a7.6 7.6 0 0 0 .1 1.5l-1.7.2v-5.5a4.2 4.2 0 0 1-1.2.3zm9.1 4.7l-1.7.5a5 5 0 0 0-.4-1.3l-1.4.2a4.3 4.3 0 0 1-.1.5l-.2.7L30 38a10.9 10.9 0 0 0 .5-1.7 5.1 5.1 0 0 1 .2-.9c.1-.4.2-1.2.3-1.7a5.9 5.9 0 0 0 .2-1.3c.1-.3.1-.9.2-1.3a8.5 8.5 0 0 1 2.7-.4 5 5 0 0 1 .2 1.2 1.7 1.7 0 0 1 .1.7l.3 1.4a6.1 6.1 0 0 0 .4 1.7c.2.7.3 1.4.5 2zm-3-3.3a5 5 0 0 1-.2 1.2l.8-.2a22.3 22.3 0 0 1-.4-2.3zm7.6 3.4l-.9.2-1.6.2h-1.6v-1.4c0-1.1.1-2.2.1-3.3s.1-1.6.1-2.5l1.8-.2c-.1.5-.1 1-.2 1.5s-.1 2.7-.1 4.2l.8-.2 1.3-.3c0 .3.2.9.3 1.8zm5.2-.8c-.1.3-.3.4-.4.6l-.5.4-1.1.4H43a1.8 1.8 0 0 1-1-.2 3.1 3.1 0 0 1-1.7-2.3 1.3 1.3 0 0 1-.1-.6 4.8 4.8 0 0 1 1.3-3c.1-.3.3-.4.5-.6a2 2 0 0 1 .7-.6l.8-.4h.6a1.4 1.4 0 0 1 .9.3 2 2 0 0 1 .3 1.1v1.3l-1.6.2a3.8 3.8 0 0 0-.1-1l-.8.6a3.4 3.4 0 0 0-.6 1.2 2.9 2.9 0 0 0-.2.9v.4l.3.5.3.4.5.2h.5c.2-.1.3-.5.3-.8H43a4.9 4.9 0 0 1-.3-1.5l1.2-.3h1.5a1.9 1.9 0 0 1 .2.8c0 .3.1.6.1.9a5 5 0 0 1-.3 1.1zm1-5.5v-.4l1.9-.2V32c0 .8-.1 1.6-.1 2.4s.1 2 .1 3.1v.4l-1.9.2v-6.6zm8 6.2l-1.7.5a9.3 9.3 0 0 1-.4-1.3l-1.4.2a1.1 1.1 0 0 0-.1.5l-.2.7-1.8-.3.4-1.7.3-.9c.1-.4.2-1.2.3-1.7a5.9 5.9 0 0 0 .2-1.3 6.9 6.9 0 0 1 .2-1.3 8.5 8.5 0 0 1 2.7-.4 5 5 0 0 1 .2 1.2c0 .2.1.5.1.7l.3 1.4c.1.7.2 1.3.3 1.7zm-3-3.3c-.1.4-.1.8-.2 1.2l.8-.2a22.3 22.3 0 0 1-.4-2.3z"/><ellipse cx="13.6" cy="28.2" fill="#f8d259" rx="1.9" ry="1.5" transform="rotate(-13.2 13.803 28.31)"/><ellipse cx="13.5" cy="28.3" fill="#fff" rx=".8" ry=".6" transform="rotate(-13.2 13.371 28.26)"/><ellipse cx="12.6" cy="25.8" fill="#b0c452" rx="2.7" ry="2.1"/><ellipse cx="12.5" cy="25.9" fill="#fff" rx="1.2" ry=".9"/><ellipse cx="54.5" cy="26" fill="#eb7d72" rx="1.9" ry="2.5" transform="rotate(-82.5 54.52 26.063)"/><ellipse cx="54.3" cy="26" fill="#fff" rx=".9" ry="1.2" transform="rotate(-82.5 54.366 25.992)"/><ellipse cx="52.3" cy="23.1" fill="#c4e0ae" rx="2.8" ry="2.1" transform="rotate(-13.2 52.5 23.153)"/><ellipse cx="52.2" cy="23.2" fill="#fff" rx="1.2" ry=".9" transform="rotate(-13.2 52.5 23.153)"/><path fill="#5e4777" d="M46.1 19.9l-.2.3a.8.8 0 0 0 .1 1.2l.8.5a1.2 1.2 0 0 0 1.4 0 .7.7 0 0 0 0-1.2l-1.3-.9a.6.6 0 0 0-.8.1z"/><path fill="#fcdf79" d="M48.6 27.5l.3.3c.4.4 1 .4 1.2 0l.4-.6a1.2 1.2 0 0 0-.2-1.4c-.3-.4-.9-.5-1.1-.2l-.7 1.1a.6.6 0 0 0 .1.8z"/><path fill="#198c9f" d="M56.2 29.1h-.6c-.9.1-1.4.8-1.2 1.4l.4.9a1.8 1.8 0 0 0 1.8 1c.9 0 1.6-.6 1.4-1.2l-.6-1.8a1.2 1.2 0 0 0-1.2-.3z"/><ellipse cx="27.2" cy="42.1" fill="#c8e8e9" rx="2.4" ry="1.7"/><ellipse cx="27" cy="42.1" fill="#fff" rx="1" ry=".7"/><ellipse cx="45.2" cy="40.8" fill="#b0c452" rx="2.4" ry="1.7"/><ellipse cx="45" cy="40.8" fill="#fff" rx="1" ry=".7"/><ellipse cx="34.9" cy="40.8" fill="#c4e0ae" rx="1.7" ry="1.2" transform="rotate(-10.5 34.69 40.502)"/><ellipse cx="34.8" cy="40.8" fill="#fff" rx=".7" ry=".5" transform="rotate(-10.5 34.69 40.502)"/><path fill="#f58771" d="M39.4 41.8l-.2-.4c-.1-.4-.7-.6-1.2-.4l-.8.4a1.3 1.3 0 0 0-.8 1.2.9.9 0 0 0 1.2.6l1.4-.7a.6.6 0 0 0 .4-.7z"/><path fill="#198c9f" d="M15.3 39.5l-.2.3a.8.8 0 0 0 .6 1.1l.8.3a1.9 1.9 0 0 0 1.5-.4.8.8 0 0 0-.4-1.2l-1.5-.5a.7.7 0 0 0-.8.4z"/><path fill="#5e4777" d="M41.8 41.5h-.3a.7.7 0 0 0-.9.5l-.2.6a.9.9 0 0 0 .4 1.1c.3.3.8.1 1-.3l.3-1.2a.4.4 0 0 0-.3-.7zm-18.6 0v-.4c-.1-.7-.6-1.1-1.1-1l-.9.3a1.4 1.4 0 0 0-1 1.3c-.1.6.5 1.2 1 1l1.6-.4a.8.8 0 0 0 .4-.8z"/><path fill="#fcdf79" d="M31.4 42H31c-.5.3-.7.9-.4 1.2l.5.6a1.8 1.8 0 0 0 1.5.3c.5-.2.8-.8.5-1.1l-.8-1a.7.7 0 0 0-.9 0z"/></svg>