<svg xmlns="http://www.w3.org/2000/svg" width="32" height="32" viewBox="0 0 32 32"><path fill="#b1ddea" stroke="#76a1ab" stroke-miterlimit="10" stroke-width=".26" d="M29.8 13a1 1 0 0 1 .9 1c-.6 8.9-3.2 12.2-8.4 14.5a18.4 18.4 0 0 1-13.8-.7c-7-3.5-7.4-12-7.2-14.7a.9.9 0 0 1 .9-.9z"/><ellipse cx="15.9" cy="13.5" fill="#89c3cf" stroke="#76a1ab" stroke-miterlimit="10" stroke-width=".26" rx="14.8" ry="9.2"/><ellipse cx="15.9" cy="15" fill="#fff" rx="13.5" ry="7.4"/><ellipse cx="12.6" cy="12.7" fill="#fff" rx=".6" ry=".4"/><ellipse cx="10.7" cy="9.7" fill="#eb7d72" rx="1.4" ry="1"/><ellipse cx="10.7" cy="9.7" fill="#fff" rx=".6" ry=".4"/><ellipse cx="12.5" cy="9.1" fill="#b0c452" rx="1.2" ry=".9"/><ellipse cx="12.4" cy="9.1" fill="#fff" rx=".6" ry=".4"/><ellipse cx="16.8" cy="8.9" fill="#f8d259" rx="1.4" ry="1"/><ellipse cx="16.7" cy="8.9" fill="#fff" rx=".6" ry=".4"/><ellipse cx="18" cy="15.6" fill="#fff" rx=".6" ry=".4"/><ellipse cx="6.1" cy="17" fill="#fff" rx=".6" ry=".4"/><ellipse cx="21.2" cy="18.5" fill="#fff" rx=".6" ry=".4"/><ellipse cx="23" cy="16.7" fill="#fff" rx=".6" ry=".4"/><ellipse cx="24.4" cy="10.8" fill="#fff" rx=".6" ry=".4"/><ellipse cx="20.7" cy="9.5" fill="#b0c452" rx="1.4" ry="1"/><ellipse cx="20.6" cy="9.5" fill="#fff" rx=".6" ry=".4"/><path fill="#eb7d72" d="M3.5 14.7h-.1c-.1.3.1.7.4.7l.5.2a.8.8 0 0 0 .8-.2.5.5 0 0 0-.2-.8l-.9-.2a.5.5 0 0 0-.5.3z"/><path fill="#5e4777" d="M4.8 12.2h-.1c-.2-.1-.5.1-.6.3v.4a.8.8 0 0 0 .2.7.5.5 0 0 0 .6-.2l.2-.7c0-.3-.1-.4-.3-.5z"/><path fill="#198c9f" d="M8 11.8h.2c.4-.2.6-.6.4-.8l-.3-.4a1.1 1.1 0 0 0-1-.2c-.4.1-.7.5-.5.8l.6.7z"/><path fill="#eb7d72" d="M10.2 12.2v-.3l-.5.4a2.1 2.1 0 0 0-.2.6v.3a.4.4 0 0 0 .1.3c0 .2.2.3.4.3h.3l.4-.3.5.7-.6.4H10l-.6-.2a1.2 1.2 0 0 1-.5-.5c-.2-.1-.2-.4-.2-.6a3.8 3.8 0 0 1 .1-1 3.1 3.1 0 0 1 .8-1.1 1.1 1.1 0 0 1 .8-.3h.4c.2.1.2.3.2.6v.6a.6.6 0 0 1-.1.4h-.7v-.6zm2.7 2.3h-1.4a17.5 17.5 0 0 1 0-2.3v-.3h-.2c0-.2-.1-.6-.1-.8l1.1-.2 1-.2v.9h-.9c-.1.1-.1.6-.1.7l.9-.2v.8l-.9.2v.4h.2c0-.1.1-.1.2-.1h.7c0 .2.1.6.1.8zm3.3-.3c-.3.3-.6.6-.8.6l-.2-.3a3.5 3.5 0 0 1-.5-.8v.9h-.9v-1.1a8.6 8.6 0 0 0 0-1.6h-.1a1.1 1.1 0 0 1 0-.8h.6a2.9 2.9 0 0 1 1 .3 1 1 0 0 1 .6.5.9.9 0 0 1 .3.5v.3l-.6.7.3.5zm-1-2l-.4-.2h-.1a3.4 3.4 0 0 0 0 1c.2-.2.8-.5.5-.8zm2.7 2.3h-1.4v-2.4h-.2v-.8l1-.2 1-.2v.9h-.9v.7l.8-.2v.8l-.9.2v.4h1.1a2.2 2.2 0 0 1 .1.8zm3.5-.1l-.9.2c0-.2-.1-.4-.1-.6h-.7a.3.3 0 0 0-.1.2.6.6 0 0 1-.1.4l-.8-.2a2.4 2.4 0 0 1 .2-.8.6.6 0 0 1 .1-.4c0-.2.1-.6.1-.8a1.7 1.7 0 0 0 .1-.7c.1-.1.1-.4.1-.6l1.3-.2c.1.1.1.5.1.6v.3c0 .3.1.5.1.7s.1.6.2.8zm-1.5-1.6a4.3 4.3 0 0 1-.1.5h.4c-.1-.4-.1-.8-.2-1.1zm3.7 1.6h-2v-2.1c0-.3.1-.7.1-1.1h.8v.7a12.7 12.7 0 0 0-.1 2h1zM7.9 18.7l-.7.2-.6-1.3c0 .2-.1.4-.1.6v.7h-.7v-3.2l.7-.2.2.5a4.2 4.2 0 0 1 .2.6l.2.3v-1.4h.8v3.3zm2.6-1.5v.6c-.2.4-.3.8-.7 1l-.6.2-.5-.2-.2-.2-.2-.3c0-.1-.1-.4-.1-.6s-.1-.2-.1-.3a2.8 2.8 0 0 1 .3-1.3 1.6 1.6 0 0 1 .8-.6h.4a1 1 0 0 1 .6.5l.3.6c0 .2.1.4 0 .6zm-.8 0c0-.2 0-.3-.1-.4s0-.2-.1-.2a.3.3 0 0 0-.1-.2l-.3.2c0 .1-.1.2-.1.3a2.6 2.6 0 0 0 .1 1.1h.2c.2 0 .2-.1.3-.2a1.5 1.5 0 0 0 .1-.6zm1.4.8a1.4 1.4 0 0 0 .9.3c.2 0 .3-.1.3-.2s-.4-.1-.7-.2a1.1 1.1 0 0 1-.8-1 1.4 1.4 0 0 1 .3-.9 1.7 1.7 0 0 1 1.1-.6c.2 0 .6 0 .7.2a1.1 1.1 0 0 1 .1.5 1.9 1.9 0 0 1-.1.8h-.8a.4.4 0 0 0 .1-.3c0-.1 0-.3-.1-.3s-.4.3-.4.6l.8.3c.2.1.4.1.5.3a.4.4 0 0 1 .1.3v.2a1 1 0 0 1-.8.9h-1.5zm2.2-1.5a2.8 2.8 0 0 1-.1-.8h.2l1.4-.2h.4c0 .1.1.5.1.8h-.6V19h-.8v-2.6zm4.4 2.3l-.8.2a1.4 1.4 0 0 1-.2-.7l-.7.2c0 .1 0 .1-.1.2a.8.8 0 0 1-.1.4l-.8-.2a2.4 2.4 0 0 0 .2-.8 4.3 4.3 0 0 0 .1-.5c.1-.1.1-.5.2-.8s.1-.3.1-.6a1.5 1.5 0 0 1 .1-.6l1.3-.2c0 .1 0 .5.1.6v.3a1.5 1.5 0 0 1 .1.7 3.1 3.1 0 0 1 .2.8zm-1.5-1.6v.5h.3c-.1-.5-.1-.8-.2-1.2zm3.7 1.6h-2v-2.1c0-.4.1-.7.1-1.2h.9a1.3 1.3 0 0 0-.1.6 14.8 14.8 0 0 0-.1 2.1h1c.1-.1.1.2.2.6zm2.5-.4l-.2.3-.3.2-.5.2h-.6a1.7 1.7 0 0 1-.9-1.1v-.3a2.8 2.8 0 0 1 .6-1.5l.2-.2c.1-.2.3-.2.4-.3l.4-.2h.7a.7.7 0 0 1 .1.5c0 .1.1.5 0 .6h-.7a.6.6 0 0 0-.1-.4q-.2 0-.3.3a1 1 0 0 0-.4.5c0 .2-.1.3-.1.4s0 .2.1.2a.4.4 0 0 0 .1.3c0 .1.1.1.1.2h.5c.1 0 .2-.2.2-.4h-.5a2.3 2.3 0 0 1-.1-.7l.6-.2h.7c0 .1.1.2.1.4v.4a1.3 1.3 0 0 1-.1.8zm.5-2.6v-.2h.9v.4c0 .4-.1.8-.1 1.1s.1 1 .1 1.6v.2h-.9v-3.1zm3.8 3l-.8.2a6.4 6.4 0 0 1-.2-.7l-.7.2v.2c-.1.1-.1.2-.1.4l-.9-.2a2.4 2.4 0 0 0 .2-.8c.1-.1.1-.3.2-.5a2.8 2.8 0 0 1 .1-.8 1.1 1.1 0 0 0 .1-.6 1.5 1.5 0 0 1 .1-.6l1.3-.2v.9a6.4 6.4 0 0 1 .2.7c0 .3.1.6.1.8zm-1.4-1.6c-.1.1-.1.4-.1.5h.4a6 6 0 0 1-.2-1.2z"/><ellipse cx="7.1" cy="14.2" fill="#f8d259" rx=".9" ry=".7" transform="rotate(-13.2 7.093 14.396)"/><ellipse cx="7" cy="14.2" fill="#fff" rx=".4" ry=".3" transform="rotate(-13.2 7.093 14.396)"/><ellipse cx="6.6" cy="13.1" fill="#b0c452" rx="1.3" ry="1"/><ellipse cx="6.5" cy="13.1" fill="#fff" rx=".6" ry=".4"/><ellipse cx="26.8" cy="13.1" fill="#eb7d72" rx=".9" ry="1.2" transform="rotate(-82.5 26.815 13.128)"/><ellipse cx="26.7" cy="13.1" fill="#fff" rx=".4" ry=".6" transform="rotate(-82.5 26.687 13.15)"/><ellipse cx="25.7" cy="11.8" fill="#c4e0ae" rx="1.4" ry="1" transform="rotate(-13.2 25.793 11.743)"/><ellipse cx="25.6" cy="11.8" fill="#fff" rx=".6" ry=".4" transform="rotate(-13.2 25.793 11.743)"/><path fill="#5e4777" d="M22.7 10.2h-.1a.4.4 0 0 0 .1.6l.3.3a.8.8 0 0 0 .7 0c.2-.2.3-.5 0-.6l-.6-.5z"/><path fill="#fcdf79" d="M23.9 13.9h.2a.4.4 0 0 0 .6 0v-.3a.8.8 0 0 0 0-.7c-.2-.2-.5-.2-.6 0l-.4.5a.6.6 0 0 0 .2.5z"/><path fill="#198c9f" d="M27.6 14.6h-.3c-.4 0-.7.4-.6.6l.2.5a.9.9 0 0 0 .9.5c.4 0 .7-.3.6-.6l-.3-.9s-.3-.1-.5-.1z"/><ellipse cx="13.6" cy="20.9" fill="#c8e8e9" rx="1.1" ry=".8"/><ellipse cx="13.5" cy="20.8" fill="#fff" rx=".5" ry=".3"/><ellipse cx="22.3" cy="20.2" fill="#b0c452" rx="1.1" ry=".8"/><ellipse cx="22.2" cy="20.2" fill="#fff" rx=".5" ry=".3"/><ellipse cx="17.3" cy="20.2" fill="#c4e0ae" rx=".8" ry=".6" transform="rotate(-10.5 17.345 20.251)"/><ellipse cx="17.3" cy="20.2" fill="#fff" rx=".3" ry=".2" transform="rotate(-10.5 17.345 20.251)"/><path fill="#f58771" d="M19.5 20.7h-.1a.4.4 0 0 0-.6-.3l-.4.2a.7.7 0 0 0-.3.6.3.3 0 0 0 .5.3l.7-.3a.4.4 0 0 0 .2-.5z"/><path fill="#198c9f" d="M7.9 19.6h-.1a.4.4 0 0 0 .3.6h.4a.6.6 0 0 0 .7-.2.3.3 0 0 0-.2-.5l-.7-.3a.5.5 0 0 0-.4.4z"/><path fill="#5e4777" d="M20.7 20.6h-.2c-.2-.1-.4 0-.4.2v.3a.4.4 0 0 0 .2.5c.1.1.4 0 .4-.1l.2-.6c-.1-.1-.1-.3-.2-.3zm-9 0v-.2c-.1-.3-.3-.6-.6-.5h-.4c-.3.1-.4.4-.5.7a.5.5 0 0 0 .5.5l.7-.2c.2 0 .3-.1.3-.3z"/><path fill="#fcdf79" d="M15.6 20.8h-.1c-.3.1-.4.4-.2.6l.2.2a.8.8 0 0 0 .7.2.4.4 0 0 0 .3-.6l-.4-.5a.4.4 0 0 0-.5.1z"/></svg>