<svg xmlns="http://www.w3.org/2000/svg" width="256" height="256" viewBox="0 0 256 256"><path fill="#5d4677" stroke="#fff" stroke-miterlimit="10" stroke-width="1.6" d="M247.9 101.7a8 8 0 0 1 7.7 8.4c-4.9 77.3-27.3 106-72.8 125.5-34.2 14.6-84.6 11.4-119.1-5.8C2.5 199.3-.1 126.4.8 102.4a7.8 7.8 0 0 1 8.1-7.5z"/><ellipse cx="128" cy="106.1" fill="#5d4677" stroke="#fff" stroke-miterlimit="10" stroke-width="1.6" rx="128" ry="79.3"/><ellipse cx="127.9" cy="118.8" fill="#fff" stroke="#5d4677" stroke-miterlimit="10" stroke-width="3.21" rx="116.8" ry="63.8"/><ellipse cx="83" cy="72.8" fill="#5d4677" stroke="#fff" stroke-miterlimit="10" stroke-width="1.6" rx="11.7" ry="8.9"/><ellipse cx="87.6" cy="103.8" fill="#5d4677" stroke="#fff" stroke-miterlimit="10" stroke-width="1.6" rx="11.7" ry="8.9"/><ellipse cx="82.3" cy="72.9" fill="#fff" rx="5" ry="3.8"/><ellipse cx="97.9" cy="67.7" fill="#5d4677" stroke="#fff" stroke-miterlimit="10" stroke-width="1.6" rx="10.2" ry="7.8"/><ellipse cx="97.2" cy="67.7" fill="#fff" rx="5" ry="3.8"/><ellipse cx="135.7" cy="66.2" fill="#5d4677" stroke="#fff" stroke-miterlimit="10" stroke-width="1.6" rx="11.7" ry="8.9"/><ellipse cx="135" cy="66.3" fill="#fff" rx="5" ry="3.8"/><ellipse cx="87.6" cy="103.8" fill="#fff" rx="5" ry="3.8"/><ellipse cx="58.6" cy="136.9" fill="#5d4677" stroke="#fff" stroke-miterlimit="10" stroke-width="1.6" rx="11.7" ry="8.9"/><ellipse cx="57.8" cy="137" fill="#fff" rx="5" ry="3.8"/><ellipse cx="200.4" cy="152.6" fill="#5d4677" stroke="#fff" stroke-miterlimit="10" stroke-width="1.6" rx="11.7" ry="8.9"/><ellipse cx="199.7" cy="152.6" fill="#fff" rx="5" ry="3.8"/><ellipse cx="168.9" cy="71.4" fill="#5d4677" stroke="#fff" stroke-miterlimit="10" stroke-width="1.6" rx="11.7" ry="8.9"/><ellipse cx="168.2" cy="71.5" fill="#fff" rx="5" ry="3.8"/><path fill="#5d4677" d="M20.5 116l-.7 1.6a4.4 4.4 0 0 0 2.7 6.2l4.3 1.3A6.8 6.8 0 0 0 34 123a3.9 3.9 0 0 0-1.8-6.2l-7.6-2.5a3.4 3.4 0 0 0-4.1 1.7zm11.4-21.2l-1.3-.5a3.6 3.6 0 0 0-4.9 2.4l-.9 3.5a5.4 5.4 0 0 0 1.9 5.7 3.1 3.1 0 0 0 4.9-1.6l1.8-6.2a2.7 2.7 0 0 0-1.5-3.3zm183 33l-1.3-.6a3.7 3.7 0 0 0-4.9 2.4l-.9 3.5a5.3 5.3 0 0 0 1.9 5.7 3.1 3.1 0 0 0 4.9-1.6l1.8-6.2a2.7 2.7 0 0 0-1.5-3.2zM59 91.5l2.1-1c3.3-1.7 4.7-5 3.1-7.1L61.5 80c-1.6-2-5-2.6-8.4-1.6-3.5 1-5.7 4.4-4.1 6.5l4.6 6.2c1 1.3 3.3 1.5 5.4.4zm46.3 33.6l2.1-1.1c3.3-1.6 4.8-5 3.2-7l-2.7-3.4c-1.7-2-5-2.7-8.5-1.7-3.5 1.1-5.6 4.5-4 6.6l4.6 6.1c1 1.3 3.3 1.5 5.3.5z"/><ellipse cx="51.4" cy="112.2" fill="#5d4677" stroke="#fff" stroke-miterlimit="10" stroke-width="1.6" rx="8.1" ry="6.1" transform="rotate(-13.2 51.806 112.41)"/><ellipse cx="51" cy="112.4" fill="#fff" rx="3.5" ry="2.6" transform="rotate(-13.2 51.324 112.792)"/><ellipse cx="40.5" cy="144.6" fill="#5d4677" stroke="#fff" stroke-miterlimit="10" stroke-width="1.6" rx="8.1" ry="6.1" transform="rotate(-13.2 40.61 144.834)"/><ellipse cx="40" cy="144.8" fill="#fff" rx="3.5" ry="2.6" transform="rotate(-13.2 40.128 145.216)"/><ellipse cx="47.3" cy="102.2" fill="#5d4677" stroke="#fff" stroke-miterlimit="10" stroke-width="1.6" rx="11.3" ry="8.5"/><ellipse cx="46.6" cy="102.3" fill="#fff" rx="4.8" ry="3.7"/><ellipse cx="221.7" cy="102.9" fill="#5d4677" stroke="#fff" stroke-miterlimit="10" stroke-width="1.6" rx="7.8" ry="10.2" transform="rotate(-82.5 221.745 102.881)"/><ellipse cx="221" cy="102.8" fill="#fff" rx="3.8" ry="5" transform="rotate(-82.5 221.038 102.766)"/><ellipse cx="212.1" cy="91" fill="#5d4677" stroke="#fff" stroke-miterlimit="10" stroke-width="1.6" rx="11.7" ry="8.9" transform="rotate(-13.2 212.79 91.185)"/><ellipse cx="158.8" cy="140.8" fill="#5d4677" stroke="#fff" stroke-miterlimit="10" stroke-width="1.6" rx="11.7" ry="8.9" transform="rotate(-13.2 159.287 141.048)"/><ellipse cx="212.1" cy="91.2" fill="#fff" rx="5" ry="3.8" transform="rotate(-13.2 212.74 91.617)"/><ellipse cx="158.8" cy="140.8" fill="#fff" rx="5" ry="3.8" transform="rotate(-13.2 159.287 141.048)"/><ellipse cx="123.2" cy="107" fill="#5d4677" stroke="#fff" stroke-miterlimit="10" stroke-width="1.6" rx="7.8" ry="10.2" transform="rotate(-82.5 123.194 107.03)"/><ellipse cx="122.5" cy="106.9" fill="#fff" rx="3.8" ry="5" transform="rotate(-82.5 122.488 106.915)"/><ellipse cx="113.5" cy="95.1" fill="#5d4677" stroke="#fff" stroke-miterlimit="10" stroke-width="1.6" rx="11.7" ry="8.9" transform="rotate(-13.2 113.76 95.492)"/><ellipse cx="113.5" cy="95.4" fill="#fff" rx="5" ry="3.8" transform="rotate(-13.2 113.76 95.492)"/><path fill="#5d4677" d="M186.7 77.5l-1 1a3.7 3.7 0 0 0 .7 5.4l3.1 2a5.5 5.5 0 0 0 6 0 3.1 3.1 0 0 0 .1-5.2l-5.4-3.6a2.6 2.6 0 0 0-3.5.4zm10.6 31.8l1.1 1c1.7 1.5 4.1 1.5 5.1 0l1.5-2.6a5.1 5.1 0 0 0-.6-5.6c-1.4-1.9-4-2.2-5-.7l-2.9 4.5a2.8 2.8 0 0 0 .8 3.4zm-57.9 9.8l-1.3-.2a3.5 3.5 0 0 0-4.2 3.4v3.7a5.5 5.5 0 0 0 3.2 5.1 3.1 3.1 0 0 0 4.4-2.7l.3-6.5a2.7 2.7 0 0 0-2.4-2.8zM118.2 145l-.3 1.5c-.4 2.3.9 4.3 2.7 4.3h3a5.1 5.1 0 0 0 4.4-3.5c.9-2.2-.2-4.5-2-4.6h-5.4a2.5 2.5 0 0 0-2.4 2.3zm110.4-29.3l-2.3.4c-3.6.7-6 3.4-5 5.8l1.6 4.1c1 2.4 4 4 7.6 4 3.6 0 6.6-2.7 5.7-5.1l-2.6-7.2c-.6-1.6-2.7-2.4-5-2z"/><ellipse cx="107.8" cy="169.9" fill="#5d4677" stroke="#fff" stroke-miterlimit="10" stroke-width="1.6" rx="9.8" ry="6.9"/><ellipse cx="107.3" cy="169.7" fill="#fff" rx="4.2" ry="3"/><ellipse cx="182.8" cy="164.3" fill="#5d4677" stroke="#fff" stroke-miterlimit="10" stroke-width="1.6" rx="9.8" ry="6.9"/><ellipse cx="182.2" cy="164.4" fill="#fff" rx="4.2" ry="3"/><ellipse cx="139.6" cy="164.4" fill="#5d4677" stroke="#fff" stroke-miterlimit="10" stroke-width="1.6" rx="7" ry="5" transform="rotate(-10.5 139.155 163.69)"/><ellipse cx="139.6" cy="164.5" fill="#fff" rx="3" ry="2.1" transform="rotate(-10.5 139.155 163.69)"/><ellipse cx="94.4" cy="138.3" fill="#5d4677" stroke="#fff" stroke-miterlimit="10" stroke-width="1.6" rx="7" ry="5" transform="rotate(-10.5 93.814 137.574)"/><ellipse cx="94.3" cy="138.4" fill="#fff" rx="3" ry="2.1" transform="rotate(-10.5 93.764 138.118)"/><ellipse cx="120" cy="131.4" fill="#5d4677" stroke="#fff" stroke-miterlimit="10" stroke-width="1.6" rx="7" ry="5" transform="rotate(-10.5 119.645 131.168)"/><ellipse cx="119.9" cy="131.4" fill="#fff" rx="3" ry="2.1" transform="rotate(-10.5 119.645 131.168)"/><ellipse cx="34.9" cy="135.1" fill="#5d4677" stroke="#fff" stroke-miterlimit="10" stroke-width="1.6" rx="7" ry="5" transform="rotate(-10.5 34.847 134.35)"/><ellipse cx="34.8" cy="135.1" fill="#5d4677" rx="3" ry="2.1" transform="rotate(-10.5 34.797 134.895)"/><path fill="#5d4677" d="M158.6 168.5l-.5-1.3a3.7 3.7 0 0 0-5.2-1.9l-3.4 1.7a5.2 5.2 0 0 0-3 5.1 3.3 3.3 0 0 0 4.7 2.4l6-2.8a2.5 2.5 0 0 0 1.4-3.2zm-100.3-9.6l-.6 1.2A3.5 3.5 0 0 0 60 165l3.6 1a5.8 5.8 0 0 0 6-1.7 2.9 2.9 0 0 0-1.4-4.8l-6.4-1.9a2.8 2.8 0 0 0-3.5 1.3zm110.5 8.7l-1-.5a3.1 3.1 0 0 0-4.1 1.9l-.8 2.8a3.9 3.9 0 0 0 1.6 4.4 2.7 2.7 0 0 0 4.1-1.2l1.5-4.9a2 2 0 0 0-1.3-2.5zm-84.9-49.1l-1-.4a3 3 0 0 0-4.1 1.9l-.8 2.7a4 4 0 0 0 1.6 4.5 2.7 2.7 0 0 0 4.1-1.3l1.5-4.8a2.1 2.1 0 0 0-1.3-2.6zm96.5 24.7l-1.1-.4a3.1 3.1 0 0 0-4.1 1.8l-.8 2.8a4.4 4.4 0 0 0 1.6 4.5 2.8 2.8 0 0 0 4.2-1.3l1.5-4.9a2.1 2.1 0 0 0-1.3-2.5zm-97.1 9.2l-.5-1.2a3.9 3.9 0 0 0-5.3-1.9l-3.3 1.6a5.2 5.2 0 0 0-3 5.1 3.3 3.3 0 0 0 4.7 2.5l6-2.8a2.6 2.6 0 0 0 1.4-3.3zm10.2-.9l-1.1-.4a3 3 0 0 0-4.1 1.9l-.8 2.7a4.2 4.2 0 0 0 1.7 4.5 2.7 2.7 0 0 0 4.1-1.3l1.5-4.8a2.1 2.1 0 0 0-1.3-2.6z"/><path fill="#5e4777" d="M91.2 167.3l-.2-1.7c-.3-2.7-2.6-4.6-4.8-4l-3.6 1.1a6 6 0 0 0-4.1 5.4c-.3 2.7 1.8 5 4.1 4.4l6.5-1.6a3.2 3.2 0 0 0 2.1-3.6z"/><path fill="#5d4677" d="M125.3 169.3l-1.4.8c-2.2 1.1-3 3.4-1.7 4.8l2.1 2.4a5.9 5.9 0 0 0 6 1.2c2.4-.8 3.7-3.1 2.4-4.6l-3.6-4.3a3.2 3.2 0 0 0-3.8-.3z"/><ellipse cx="186.6" cy="119.8" fill="#5d4677" stroke="#fff" stroke-miterlimit="10" stroke-width="1.6" rx="6.9" ry="9.8" transform="rotate(-54.3 186.562 119.81)"/><ellipse cx="187" cy="120.3" fill="#fff" rx="3" ry="4.2" transform="rotate(-54.3 186.95 120.255)"/><ellipse cx="157.6" cy="105.7" fill="#5d4677" stroke="#fff" stroke-miterlimit="10" stroke-width="1.6" rx="5" ry="7" transform="rotate(-64.8 157.496 105.697)"/><ellipse cx="157.7" cy="105.7" fill="#fff" rx="2.1" ry="3" transform="rotate(-64.8 157.575 105.747)"/><path fill="#5d4677" d="M144.5 91.3l-.3 1.4a3.8 3.8 0 0 0 3.2 4.6l3.6.6a5.4 5.4 0 0 0 5.5-2.4 3.4 3.4 0 0 0-2.4-4.8l-6.6-1.2a2.7 2.7 0 0 0-3 1.8zm-8.8-5.2l.6 1a3.1 3.1 0 0 0 4.4.9l2.3-1.8a4.4 4.4 0 0 0 1.3-4.6 2.8 2.8 0 0 0-4.1-1.4l-4.1 3.1a2.1 2.1 0 0 0-.4 2.8zm36.3 24l1.6.2c2.5.3 4.5-1 4.3-2.9l-.4-3.2a5.8 5.8 0 0 0-4.2-4.5c-2.3-.8-4.8.4-4.6 2.3l.5 5.6a3.1 3.1 0 0 0 2.8 2.5z"/></svg>